<svg width="58" height="33" viewBox="0 0 58 33" fill="none" xmlns="http://www.w3.org/2000/svg">
<path d="M2.95601 29.977C2.95601 29.977 2.9425 29.9639 2.91547 29.9376L2.31936 30.2258L1.72216 30.434L1.08606 30.7227C0.980133 30.7775 0.899775 30.7519 0.844984 30.646C0.817589 30.593 0.816858 30.5397 0.842791 30.486C0.815762 30.4597 0.788732 30.4334 0.761702 30.4071C0.733211 30.2742 0.77211 30.1936 0.878402 30.1655L1.67449 29.8746L2.23005 29.5469C2.23005 29.5469 2.24338 29.5467 2.27005 29.5464L2.66782 29.3809C2.66672 29.3009 2.67895 29.2207 2.70452 29.1404C2.67786 29.1407 2.66453 29.1409 2.66453 29.1409L1.98733 29.3502L1.39013 29.5584C1.28384 29.5866 1.21663 29.5475 1.1885 29.4412C1.13335 29.3086 1.17225 29.2281 1.3052 29.1996L1.86241 28.9919C1.88907 28.9915 1.9024 28.9914 1.9024 28.9914L2.58015 28.8221L2.77903 28.7393C2.80423 28.6323 2.84277 28.5251 2.89464 28.4177L2.29853 28.7059L1.58243 28.9957C1.47614 29.0239 1.3956 28.985 1.34081 28.879C1.31269 28.7728 1.35159 28.6922 1.45751 28.6374L2.13416 28.3881L2.80971 28.0588L3.04859 27.9756C3.09899 27.7615 3.09717 27.6282 3.04311 27.5756C3.01644 27.576 3.00311 27.5761 3.00311 27.5761L2.32592 27.7854L1.72871 27.9936C1.59612 28.0488 1.51558 28.0099 1.48709 27.8769C1.4323 27.771 1.47138 27.7038 1.60434 27.6753L2.20099 27.4271C2.22766 27.4268 2.24099 27.4266 2.24099 27.4266L2.91818 27.2173L3.3165 27.0918C3.34207 27.0114 3.38079 26.9176 3.43265 26.8102L2.79655 27.0989L2.24044 27.3866C2.13452 27.4414 2.05416 27.4158 1.99937 27.3099C1.91791 27.2043 1.93015 27.1241 2.03607 27.0693L2.63218 26.7812C2.63218 26.7812 2.632 26.7678 2.63163 26.7412L3.30828 26.4919L3.58661 26.368C3.61181 26.261 3.62405 26.1808 3.62331 26.1275L3.02611 26.3357L2.42946 26.5839C2.32317 26.612 2.24263 26.5731 2.18784 26.4672C2.13305 26.3613 2.17194 26.2807 2.30453 26.2256L2.90119 25.9774L3.49894 25.8092L3.85616 25.6043C3.93323 25.3899 3.95807 25.2562 3.93067 25.2032L3.25403 25.4525L2.57848 25.7818C2.44589 25.8369 2.36535 25.798 2.33686 25.6651C2.28207 25.5592 2.30763 25.4788 2.41356 25.424L3.08966 25.1347C3.08966 25.1347 3.10299 25.1345 3.12965 25.1342L3.80575 24.8449C3.83242 24.8445 3.84575 24.8443 3.84575 24.8443L4.24407 24.7189C4.24333 24.6655 4.2689 24.5852 4.32077 24.4778L4.12188 24.5605L3.52413 24.7287L2.84803 25.018C2.74211 25.0728 2.66157 25.0339 2.60641 24.9013C2.57829 24.795 2.61737 24.7278 2.72366 24.6997L3.39976 24.4104C3.42642 24.41 3.43975 24.4099 3.43975 24.4099L3.99696 24.2022L4.51472 24.0351C4.56622 23.901 4.61772 23.767 4.66922 23.6329L4.47034 23.7157L3.83478 24.0444L3.15704 24.2137C3.05111 24.2685 2.98391 24.2294 2.95541 24.0965C2.90062 23.9905 2.93971 23.9233 3.07266 23.8948L3.70986 23.6861L4.30597 23.3979C4.33226 23.3709 4.34541 23.3573 4.34541 23.3573L4.82372 23.2308C4.82336 23.2041 4.84911 23.1371 4.90098 23.0297C4.90061 23.003 4.91376 22.9895 4.94042 22.9892L4.70099 23.0324L4.10544 23.3606L3.38934 23.6505C3.28342 23.7053 3.20306 23.6797 3.14827 23.5738C3.09348 23.4679 3.13238 23.3873 3.26497 23.3322L3.94107 23.0429L4.53662 22.7147C4.53662 22.7147 4.54996 22.7145 4.57662 22.7141L5.09438 22.547C5.14588 22.413 5.13145 22.3331 5.05109 22.3076L4.41444 22.5563L3.77889 22.8851C3.67296 22.9399 3.59242 22.901 3.53727 22.7684C3.48248 22.6624 3.50804 22.5821 3.61397 22.5273L4.29007 22.238L4.88672 21.9898L5.40338 21.7427C5.42895 21.6623 5.46785 21.5818 5.52008 21.5011L5.16231 21.666L4.56456 21.8342L3.92791 22.0829C3.82198 22.1377 3.74144 22.0988 3.68629 21.9663C3.65816 21.86 3.69724 21.7928 3.80353 21.7646L4.44018 21.5159L5.03739 21.3077L5.67349 21.0189C5.75129 20.8578 5.80297 20.7371 5.82854 20.6568L5.27078 20.8244L4.59359 21.0337L3.99584 21.2019C3.86325 21.2571 3.78271 21.2182 3.75422 21.0852C3.72609 20.9789 3.76517 20.9117 3.87146 20.8836L4.50866 20.6749L5.18586 20.4656L5.98195 20.1746C6.06011 20.0402 6.12494 19.906 6.17644 19.7719L5.57869 19.9401L5.02258 20.2278L4.34539 20.4371C4.23946 20.4919 4.17244 20.4661 4.14431 20.3598C4.08916 20.2272 4.11472 20.1469 4.22101 20.1187L4.89766 19.8694L5.45432 19.6218C5.48098 19.6214 5.49431 19.6212 5.49431 19.6212L6.13151 19.4125L6.3304 19.3298C6.3567 19.3027 6.36948 19.2626 6.36875 19.2092C6.39541 19.2089 6.42171 19.1818 6.44765 19.1281L5.96934 19.2547L5.33214 19.4635L4.73658 19.7917C4.63065 19.8464 4.5503 19.8209 4.49551 19.7149C4.44035 19.5824 4.46573 19.4887 4.57166 19.4339L5.20776 19.1451C5.23406 19.1181 5.24721 19.1046 5.24721 19.1046L5.84496 18.9364L6.44216 18.7282L6.79994 18.5633C6.8518 18.4559 6.9033 18.3218 6.95444 18.1611L6.75555 18.2438L6.15945 18.532L5.52335 18.8208L4.80616 19.0306C4.69986 19.0588 4.63266 19.0197 4.60453 18.9134C4.54937 18.7808 4.58827 18.7002 4.72123 18.6718L5.39897 18.5025L5.99453 18.1743L6.63118 17.9255C6.63081 17.8988 6.63063 17.8855 6.63063 17.8855L7.06895 17.7595C7.12081 17.6521 7.13323 17.5853 7.1062 17.559L6.43065 17.8883L5.83454 18.1765C5.80825 18.2035 5.7951 18.217 5.7951 18.217L5.1179 18.4263C5.01198 18.4811 4.93144 18.4422 4.87628 18.3096C4.84815 18.2033 4.88724 18.1361 4.99353 18.108L5.67017 17.8587L6.26628 17.5705L6.94183 17.2412L7.25961 17.0768C7.25924 17.0502 7.27239 17.0366 7.29905 17.0363C7.32389 16.9026 7.33576 16.7957 7.33466 16.7158L6.61693 16.8856L5.98082 17.1744L5.42471 17.462C5.31879 17.5168 5.23843 17.4912 5.18364 17.3853C5.12885 17.2794 5.15442 17.199 5.26034 17.1442L5.81645 16.8566C5.81645 16.8566 5.81627 16.8432 5.8159 16.8166C5.84257 16.8162 5.8559 16.816 5.8559 16.816L6.49255 16.5673C6.49255 16.5673 6.50588 16.5671 6.53255 16.5667C6.53218 16.5401 6.532 16.5267 6.532 16.5267L7.20974 16.3574L7.48862 16.2736C7.51382 16.1666 7.52587 16.0731 7.52478 15.9931L6.84703 16.1624L6.29038 16.41L5.61483 16.7393C5.50854 16.7675 5.42799 16.7286 5.3732 16.6226C5.31841 16.5167 5.35731 16.4362 5.4899 16.381L6.12601 16.0923L6.72266 15.8441C6.74932 15.8437 6.76266 15.8435 6.76266 15.8435L7.63874 15.5515C7.6643 15.4711 7.68951 15.3641 7.71434 15.2304L7.11769 15.4786L6.4005 15.6885L5.80494 16.0167C5.69901 16.0714 5.61866 16.0459 5.56387 15.94C5.50907 15.834 5.53464 15.7537 5.64057 15.6989L6.23613 15.3707C6.23613 15.3707 6.24946 15.3705 6.27612 15.3701L6.99277 15.1203L7.78885 14.8293C7.81442 14.749 7.82666 14.6688 7.82556 14.5888L7.3078 14.7559L6.75059 14.9636L6.03395 15.2134C5.92803 15.2682 5.84749 15.2293 5.79233 15.0967C5.7642 14.9904 5.80329 14.9232 5.90958 14.8951L6.62622 14.6453L7.18288 14.3976L7.93952 14.1472C7.96472 14.0402 7.92399 13.9874 7.81734 13.9889L7.14179 14.3182L6.42405 14.488C6.31812 14.5428 6.25091 14.5037 6.22242 14.3708C6.19429 14.2645 6.23338 14.1973 6.33967 14.1692L7.01686 13.9598L7.65296 13.6711L8.08963 13.4251C8.11484 13.3181 8.12671 13.2112 8.12524 13.1046L7.88691 13.2279L7.21136 13.5571L6.49527 13.847C6.38934 13.9018 6.32231 13.876 6.29419 13.7697C6.2394 13.6638 6.26497 13.5835 6.37089 13.5287L7.04699 13.2394L7.72254 12.9101L8.2392 12.663C8.26404 12.5293 8.26294 12.4493 8.23591 12.423L7.63816 12.5912L6.96206 12.8805C6.85577 12.9086 6.77523 12.8697 6.72044 12.7638C6.66565 12.6579 6.70455 12.5773 6.83714 12.5222L7.55378 12.2723L8.11099 12.0647L8.38987 11.9808C8.38914 11.9275 8.40174 11.874 8.42767 11.8203L7.87101 12.068L7.19546 12.3973C7.06287 12.4524 6.98251 12.4268 6.95439 12.3206C6.8996 12.2146 6.92517 12.1343 7.03109 12.0795L7.70664 11.7502L8.54163 11.3787C8.54053 11.2987 8.55277 11.2185 8.57834 11.1382L8.06222 11.4253L7.42557 11.674C7.31965 11.7288 7.23929 11.7033 7.1845 11.5973C7.12971 11.4914 7.16861 11.4109 7.3012 11.3557L7.8973 11.0675L8.49341 10.7793L8.69174 10.6566C8.74325 10.5225 8.78141 10.3887 8.80625 10.255L8.32904 10.4615L7.61239 10.7114C7.5061 10.7395 7.43889 10.7004 7.41077 10.5941C7.35561 10.4615 7.39451 10.381 7.52747 10.3525L8.20411 10.1032L8.92021 9.81337C8.97208 9.70598 9.01079 9.61211 9.03636 9.53175L8.47806 9.65942L7.80196 9.94871C7.69567 9.97684 7.61513 9.93794 7.56034 9.83201C7.53221 9.72572 7.57111 9.64518 7.67704 9.59039L8.35368 9.34109C8.35368 9.34109 8.36701 9.34091 8.39368 9.34054C8.39331 9.31388 8.39313 9.30055 8.39313 9.30055L9.15032 9.09015C9.17589 9.00979 9.20145 8.92943 9.22702 8.84908L8.7898 9.05509L8.1537 9.34383C8.04778 9.39862 7.96724 9.35972 7.91208 9.22713C7.85729 9.12121 7.88304 9.05418 7.98933 9.02606L8.66543 8.73676L9.22154 8.44911C9.2482 8.44875 9.31468 8.4345 9.42097 8.40638C9.47211 8.24566 9.52343 8.09828 9.57493 7.96422L9.05717 8.13134L8.38107 8.42063C8.27514 8.47542 8.19479 8.44985 8.14 8.34393C8.11187 8.23764 8.15077 8.1571 8.25669 8.10231L8.89225 7.77356C8.89225 7.77356 8.90558 7.77338 8.93225 7.77302L9.56944 7.56426L9.84832 7.48043C9.87389 7.40007 9.91297 7.33287 9.96557 7.27881L9.40891 7.52646L8.77171 7.73521C8.63912 7.79037 8.55876 7.7648 8.53064 7.65851C8.50215 7.52555 8.54105 7.44501 8.64734 7.41689L9.28399 7.16814L9.88064 6.91994L10.2384 6.75502C10.2896 6.5943 10.3014 6.48746 10.274 6.4345C10.2474 6.43486 10.234 6.43505 10.234 6.43505L9.67737 6.6827L8.96128 6.97254C8.85499 7.00067 8.78778 6.96159 8.75965 6.85529C8.70486 6.74937 8.73043 6.66901 8.83635 6.61422L9.553 6.36437L10.1097 6.11672L10.5069 5.91126C10.5584 5.77721 10.5838 5.68352 10.583 5.63019L9.90638 5.87949L9.34918 6.08714C9.21622 6.11563 9.13568 6.07673 9.10756 5.97044C9.07943 5.86415 9.11833 5.78361 9.22425 5.72882L9.78201 5.56116L10.4581 5.27187L10.777 5.18749C10.8285 5.05344 10.8141 4.97363 10.7337 4.94806L10.0576 5.23735L9.4215 5.5261C9.2889 5.58125 9.20855 5.55569 9.18042 5.44939C9.12527 5.3168 9.15083 5.23645 9.25712 5.20832L9.93322 4.91903L10.5693 4.63028L11.046 4.38373C11.0716 4.30337 11.0971 4.22301 11.1227 4.14265L10.9238 4.22539L10.2466 4.43469L9.64886 4.6029C9.54294 4.65769 9.4624 4.61879 9.40724 4.4862C9.37911 4.3799 9.4182 4.3127 9.52449 4.28457L10.1617 4.07582L10.7994 3.90706L11.3166 3.69995C11.3681 3.5659 11.4065 3.44536 11.4317 3.33834L10.9539 3.5049L10.3167 3.71366C10.1838 3.74215 10.1032 3.70325 10.0751 3.59696C10.047 3.49067 10.0859 3.41013 10.1918 3.35534L10.8696 3.18603L11.6651 2.8551C11.7425 2.66735 11.8468 2.49257 11.9779 2.33076C12.1091 2.16895 12.2539 2.03362 12.4124 1.92477C12.7554 1.65337 13.1267 1.5016 13.5263 1.46946C13.9259 1.43731 14.3392 1.43164 14.7662 1.45246C15.4068 1.49702 16.0342 1.54176 16.6482 1.58668C17.2889 1.63123 17.9292 1.64913 18.5691 1.64035C18.9157 1.6356 19.2624 1.63085 19.609 1.6261C19.9556 1.62135 20.2888 1.60345 20.6084 1.5724C20.8483 1.56911 21.075 1.566 21.2883 1.56308C21.5016 1.56015 21.7149 1.55723 21.9282 1.55431C21.9549 1.55394 21.9947 1.54006 22.0477 1.51267C22.4476 1.50718 22.8346 1.52855 23.2087 1.57676C23.609 1.59794 23.9841 1.72615 24.334 1.96137C24.684 2.1966 24.9281 2.49995 25.0666 2.87142C25.2313 3.21586 25.3829 3.57381 25.5213 3.94528C25.8241 4.63453 26.0607 5.35136 26.2309 6.09576C26.4274 6.81314 26.6637 7.51663 26.9399 8.20624C27.3475 8.76071 27.6637 9.44977 27.8883 10.2734C28.1396 11.0967 28.3515 11.9606 28.5239 12.865C28.7226 13.7423 28.9474 14.5793 29.1984 15.376C29.4489 16.1459 29.7771 16.7415 30.1829 17.1626C30.1829 17.1626 30.1966 17.1891 30.224 17.2421C30.2511 17.2684 30.2646 17.2815 30.2646 17.2815C30.6196 17.8901 30.8819 18.5399 31.0514 19.2309C31.2209 19.922 31.377 20.6133 31.5198 21.3047C31.6893 21.9958 31.9383 22.6458 32.2666 23.2546C32.2666 23.2546 32.2801 23.2678 32.3072 23.2941C32.3075 23.3208 32.3211 23.3339 32.3477 23.3335C32.5428 23.9443 32.7378 24.555 32.9329 25.1657C33.1542 25.7494 33.3889 26.3329 33.6369 26.9162C33.7476 27.2081 33.8444 27.4601 33.9273 27.6723C33.9551 27.7519 33.983 27.8449 34.0112 27.9512C34.0656 28.0304 34.12 28.1097 34.1744 28.189C34.2285 28.2416 34.2692 28.2943 34.2966 28.3473C34.3244 28.4269 34.3386 28.4934 34.3394 28.5467C34.3668 28.5997 34.3943 28.666 34.4221 28.7456C34.5057 29.0112 34.4687 29.225 34.3109 29.3872C34.1538 29.6027 33.9966 29.8049 33.8391 29.9937C33.7084 30.1822 33.5373 30.3446 33.3258 30.4808C33.1935 30.5626 33.0608 30.6045 32.9275 30.6063C32.8212 30.6344 32.7014 30.6494 32.568 30.6512C32.4344 30.6264 32.341 30.6277 32.2881 30.655C31.9151 30.6868 31.6089 30.7177 31.3692 30.7477L31.0509 30.872L30.4548 31.1602C30.3489 31.215 30.2685 31.1894 30.2137 31.0835C30.186 31.0039 30.1984 30.937 30.251 30.883L29.7738 31.0896C29.6679 31.1443 29.5875 31.1188 29.5327 31.0128C29.5053 30.9599 29.4914 30.9201 29.4911 30.8934C29.4111 30.8945 29.3178 30.8958 29.2111 30.8972C29.1315 30.925 29.025 30.9398 28.8917 30.9416C28.8387 30.969 28.7854 30.9698 28.7317 30.9438C28.6784 30.9446 28.625 30.9453 28.5717 30.946L28.1339 31.112C28.0013 31.1672 27.921 31.1416 27.8929 31.0353C27.8658 31.009 27.8521 30.9825 27.8518 30.9559C27.8251 30.9562 27.8118 30.9564 27.8118 30.9564L27.4535 31.0814C27.3475 31.1361 27.2672 31.1106 27.2124 31.0046L26.8146 31.1701C26.682 31.2253 26.6017 31.1997 26.5735 31.0934C26.5461 31.0405 26.5456 31.0005 26.5719 30.9734C26.4919 30.9745 26.4252 30.9754 26.3719 30.9762C26.3186 30.9769 26.2519 30.9778 26.1719 30.9789C26.0923 31.0067 26.0256 31.0076 25.9719 30.9816C25.8116 30.9572 25.6781 30.9457 25.5714 30.9471L25.2931 31.071C25.1872 31.1258 25.1068 31.1002 25.052 30.9943C25.052 30.9943 25.0385 30.9811 25.0115 30.9548L24.4937 31.1219C24.3878 31.1767 24.3073 31.1378 24.2521 31.0052L23.7738 31.1318C23.6679 31.1866 23.6008 31.1608 23.5727 31.0545C23.5453 31.0016 23.5446 30.9482 23.5705 30.8946L23.0139 31.1422C22.9079 31.197 22.8276 31.1714 22.7728 31.0655C22.718 30.9596 22.7436 30.8792 22.8495 30.8244L23.4456 30.5362L23.9628 30.3291C23.9358 30.3028 23.9088 30.2765 23.8817 30.2502L23.4045 30.4568L22.7684 30.7455L22.1718 30.9937C22.0658 31.0485 21.9855 31.023 21.9307 30.917C21.8759 30.8111 21.9015 30.7307 22.0074 30.676L22.644 30.4272L23.2401 30.139L23.6774 29.933C23.6229 29.8537 23.5546 29.7347 23.4724 29.5758C23.4454 29.5495 23.4184 29.5232 23.3914 29.4969L22.6758 29.8267L22.0792 30.0749C22.0792 30.0749 22.0658 30.0751 22.0392 30.0755L21.3614 30.2448C21.2288 30.2999 21.1483 30.261 21.1198 30.1281C21.0917 30.0218 21.1307 29.9546 21.237 29.9264L21.9542 29.7166L22.5514 29.5084L23.267 29.1786C23.2659 29.0986 23.2516 29.0321 23.2242 28.9791C23.1968 28.9262 23.1693 28.8599 23.1415 28.7802C23.1415 28.7802 23.1148 28.7806 23.0615 28.7813L22.4249 29.0301L21.8288 29.3183L21.2332 29.6465C21.1273 29.7013 21.0469 29.6757 20.9921 29.5698C20.9373 29.4638 20.9629 29.3835 21.0688 29.3287L21.6644 29.0005L22.2599 28.6723C22.2599 28.6723 22.2733 28.6721 22.2999 28.6718L23.0166 28.4219C22.9611 28.2627 22.9061 28.1434 22.8517 28.0641L22.1361 28.394L21.5789 28.6016L20.9028 28.8909C20.7969 28.9457 20.7165 28.9202 20.6617 28.8142C20.6069 28.7083 20.6325 28.6279 20.7384 28.5732L21.414 28.2439C21.4407 28.2435 21.454 28.2433 21.454 28.2433L22.0117 28.0757L22.6873 27.7464C22.714 27.746 22.7538 27.7321 22.8067 27.7047C22.7519 27.5988 22.7107 27.506 22.6829 27.4264C22.6829 27.4264 22.6562 27.4268 22.6029 27.4275L21.9668 27.7162L21.2896 27.9255L20.6524 28.1343C20.5195 28.1628 20.4389 28.1239 20.4108 28.0176C20.3827 27.9113 20.4216 27.8308 20.5275 27.776L21.2052 27.6067L21.8419 27.3579L22.4385 27.1097C22.3856 27.1371 22.3191 27.1514 22.2391 27.1525C22.1591 27.1535 22.0791 27.1546 21.9991 27.1557C21.9458 27.1565 21.8658 27.1576 21.7592 27.159L21.122 27.3678L20.4842 27.5365C20.3516 27.5917 20.2711 27.5528 20.2426 27.4198C20.2145 27.3135 20.2535 27.2463 20.3598 27.2182L20.6387 27.1344C20.6387 27.1344 20.6254 27.1346 20.5987 27.1349L20.3198 27.2188L19.6837 27.5075C19.5778 27.5623 19.4975 27.5367 19.4427 27.4308C19.4156 27.4045 19.4019 27.378 19.4016 27.3514L18.8838 27.5185C18.8575 27.5455 18.7642 27.5468 18.6038 27.5223L17.8866 27.7322C17.7807 27.787 17.7137 27.7612 17.6856 27.6549C17.6578 27.5753 17.6702 27.5084 17.7228 27.4544L17.2045 27.5815C17.0719 27.6367 16.9914 27.5978 16.9629 27.4648C16.9629 27.4648 16.9627 27.4515 16.9623 27.4248L16.4046 27.5925C16.2987 27.6473 16.2316 27.6215 16.2035 27.5152L15.9252 27.639C15.8193 27.6938 15.7389 27.6683 15.6841 27.5623C15.6571 27.536 15.6565 27.496 15.6825 27.4423L15.0047 27.6116C14.8988 27.6664 14.8183 27.6275 14.7631 27.495C14.712 27.6557 14.6608 27.8164 14.6097 27.9771C14.5852 28.1374 14.5474 28.298 14.4963 28.4587C14.3677 28.8072 14.2256 29.1425 14.07 29.4646C13.9407 29.7598 13.7176 30.0162 13.4005 30.2339C13.2157 30.3698 13.0168 30.4525 12.8039 30.4821C12.5913 30.5383 12.3785 30.5813 12.1656 30.6108C12.0059 30.6397 11.8461 30.6552 11.6862 30.6574C11.5528 30.6592 11.4064 30.6746 11.2467 30.7034L10.6895 30.9111L10.0129 31.1604L9.2968 31.4502C9.19088 31.505 9.11052 31.4795 9.05573 31.3735C9.00094 31.2676 9.03984 31.1871 9.17243 31.1319L9.45076 31.0081L9.21187 31.0914L8.61412 31.2596C8.58783 31.2866 8.56134 31.3003 8.53468 31.3007L7.97747 31.5083C7.87155 31.5631 7.79119 31.5376 7.7364 31.4316C7.68161 31.3257 7.72051 31.2452 7.8531 31.19L8.60809 30.8196C8.58143 30.82 8.54162 30.8339 8.48865 30.8613L7.89255 31.1495L7.2148 31.3188C7.10888 31.3736 7.04167 31.3345 7.01318 31.2015C6.98615 31.1752 6.9856 31.1352 7.01153 31.0815C6.98487 31.0819 6.97154 31.0821 6.97154 31.0821L6.37379 31.2503C6.26786 31.3051 6.1875 31.2795 6.13271 31.1736L5.49497 31.3423C5.38904 31.3971 5.32183 31.358 5.29334 31.2251C5.26668 31.2255 5.26649 31.2121 5.29279 31.1851L5.01391 31.2689L4.29617 31.4388C4.19025 31.4936 4.12304 31.4545 4.09455 31.3215C4.06642 31.2152 4.1055 31.148 4.2118 31.1199L4.84954 30.9512C4.84918 30.9245 4.91547 30.8969 5.04843 30.8684C4.94177 30.8699 4.83511 30.8713 4.72846 30.8728L4.09236 31.1615L3.45625 31.4503C3.35033 31.5051 3.26997 31.4795 3.21518 31.3736C3.18778 31.3206 3.18705 31.2673 3.21299 31.2136L2.65523 31.3813C2.54931 31.4361 2.48228 31.4103 2.45415 31.304C2.45379 31.2774 2.45361 31.264 2.45361 31.264L2.05529 31.3895C1.94936 31.4443 1.86882 31.4054 1.81367 31.2728C1.8133 31.2461 1.81293 31.2195 1.81257 31.1928C1.78444 31.0865 1.82353 31.0193 1.92982 30.9912L2.56702 30.7824L3.24421 30.5731L3.56254 30.4487L2.95601 29.977ZM25.4361 29.8289C25.5424 29.8008 25.6229 29.8397 25.6777 29.9456C25.6781 29.9722 25.6783 29.9856 25.6783 29.9856C25.732 30.0115 25.7855 30.0241 25.8388 30.0234L26.1566 29.859C26.2625 29.8042 26.3429 29.8298 26.3977 29.9357C26.3977 29.9357 26.3978 29.949 26.3982 29.9757L26.916 29.8086C27.0489 29.7801 27.1295 29.819 27.1576 29.9253C27.1576 29.9253 27.1578 29.9386 27.1581 29.9653L27.6759 29.7982C27.7822 29.7701 27.8494 29.8091 27.8775 29.9154C27.9045 29.9417 27.9181 29.9549 27.9181 29.9549L28.3958 29.7883C28.5288 29.7598 28.6093 29.7987 28.6374 29.905C28.6378 29.9317 28.6382 29.9583 28.6385 29.985C28.6652 29.9846 28.6919 29.9843 28.7185 29.9839L29.1163 29.8184C29.2222 29.7637 29.3026 29.7892 29.3574 29.8951C29.3574 29.8951 29.3576 29.9085 29.3579 29.9351C29.3846 29.9348 29.4112 29.9344 29.4379 29.934L29.8757 29.768C29.982 29.7399 30.0625 29.7788 30.1173 29.8847C30.1973 29.8836 30.264 29.8827 30.3173 29.882L30.6356 29.7576C30.7152 29.7299 30.7687 29.7425 30.7961 29.7954C30.9028 29.794 30.9961 29.7927 31.0761 29.7916C31.1561 29.7905 31.2492 29.7759 31.3555 29.7477C31.4089 29.747 31.4489 29.7465 31.4755 29.7461C31.6888 29.7432 31.9286 29.7266 32.1949 29.6962C32.2216 29.6959 32.2882 29.695 32.3949 29.6935C32.6086 29.7172 32.7417 29.7021 32.7943 29.648C32.9532 29.5658 33.0851 29.4573 33.1899 29.3226C33.2947 29.1878 33.3862 29.0532 33.4644 28.9188C33.464 28.8921 33.4638 28.8788 33.4638 28.8788C33.4101 28.8528 33.3831 28.8265 33.3827 28.7999C33.3276 28.6673 33.2726 28.548 33.2178 28.4421C33.1627 28.3095 33.1075 28.1769 33.0524 28.0443C32.9694 27.8321 32.8593 27.5803 32.722 27.2888C32.5006 26.7051 32.2791 26.1081 32.0574 25.4977C31.8356 24.8874 31.6272 24.2768 31.4322 23.6661C31.1042 23.0839 30.8554 22.4472 30.6859 21.7562C30.5431 21.0647 30.3871 20.3868 30.218 19.7224C30.0485 19.0313 29.7998 18.3947 29.4718 17.8124C28.9845 17.2857 28.6154 16.6241 28.3645 15.8274C28.1135 15.0308 27.902 14.1936 27.73 13.3159C27.5576 12.4115 27.3459 11.561 27.095 10.7644C26.8707 9.96736 26.5414 9.29181 26.1071 8.73771C26.1071 8.73771 26.1069 8.72437 26.1065 8.69771C26.0795 8.67141 26.066 8.65826 26.066 8.65826C25.7895 7.94198 25.5528 7.21183 25.3559 6.46779C25.1857 5.72339 24.9492 5.00656 24.6464 4.31731C24.536 4.05213 24.4256 3.77362 24.3149 3.48178C24.2038 3.16327 24.0272 2.92567 23.7851 2.76897C23.5695 2.61191 23.315 2.52206 23.0213 2.49941C22.7543 2.4764 22.4875 2.46673 22.2208 2.47038C22.1145 2.49851 22.0347 2.51294 21.9814 2.51367C21.7414 2.51696 21.5148 2.52006 21.3015 2.52299C21.0881 2.52591 20.8615 2.52902 20.6215 2.53231C20.3019 2.56336 19.9688 2.58126 19.6222 2.58601C19.2755 2.59076 18.9289 2.59551 18.5823 2.60027C17.9423 2.60904 17.2887 2.59133 16.6213 2.54714C15.9807 2.50258 15.34 2.45802 14.6993 2.41347C14.6727 2.41383 14.606 2.41475 14.4993 2.41621C14.2323 2.3932 13.9657 2.39685 13.6994 2.42717C13.4328 2.43083 13.1939 2.51411 12.9828 2.67702C12.7454 2.86696 12.5622 3.12283 12.4332 3.44462C12.3043 3.76642 12.1883 4.06137 12.0853 4.32948C12.0083 4.54388 11.9314 4.77163 11.8547 5.0127C11.8554 5.06603 11.8293 5.10639 11.7763 5.13379C11.7256 5.32117 11.6616 5.52206 11.5846 5.73647C11.6123 5.8161 11.5866 5.88312 11.5073 5.93755C11.4562 6.09826 11.3919 6.27249 11.3145 6.46024C11.3693 6.56617 11.3568 6.63301 11.2772 6.66077C11.1998 6.84852 11.1357 7.03608 11.0849 7.22346C11.1127 7.30309 11.0869 7.37011 11.0077 7.42454C11.008 7.4512 10.9951 7.47805 10.9688 7.50508C10.9691 7.53174 10.956 7.54526 10.9293 7.54562C10.8504 7.62671 10.7719 7.73447 10.6937 7.86888C10.7471 7.86815 10.7874 7.89427 10.8148 7.94723C10.8696 8.05315 10.844 8.13351 10.7381 8.1883L10.4203 8.35267C10.3685 8.46006 10.3431 8.55375 10.3442 8.63374C10.4501 8.57895 10.5305 8.60452 10.5852 8.71045C10.6134 8.81674 10.5745 8.89728 10.4685 8.95207L10.1108 9.11699C10.0856 9.22401 10.0867 9.304 10.1141 9.35697C10.2204 9.32884 10.2877 9.38125 10.3162 9.51421C10.371 9.62013 10.3319 9.68734 10.199 9.71584L9.92012 9.79967C9.89491 9.90669 9.86971 10.0137 9.84451 10.1207C9.9508 10.0926 10.018 10.1317 10.0461 10.238C10.1009 10.3439 10.0754 10.4243 9.96943 10.4791L9.73055 10.5623C9.70535 10.6694 9.68015 10.7764 9.65494 10.8834C9.73494 10.8823 9.78881 10.9216 9.81657 11.0012C9.87136 11.1071 9.79265 11.2015 9.58043 11.2845C9.55523 11.3915 9.53021 11.5118 9.50538 11.6455C9.53241 11.6718 9.55962 11.7115 9.58701 11.7644C9.61514 11.8707 9.56291 11.9514 9.43032 12.0066C9.40585 12.1669 9.36823 12.3408 9.31746 12.5282C9.34485 12.5811 9.33225 12.6347 9.27965 12.6887C9.10543 13.5979 8.93139 14.5203 8.75753 15.4561C8.58368 16.3919 8.36855 17.235 8.11214 17.9852C7.88203 18.7084 7.59622 19.2591 7.2547 19.6371C6.99646 20.2541 6.75174 20.8841 6.52054 21.5274C6.28933 22.1706 6.04461 22.8007 5.78638 23.4176C5.70894 23.6053 5.63169 23.8064 5.55462 24.0208C5.47719 24.2086 5.3866 24.4098 5.28287 24.6246C5.31027 24.6776 5.29748 24.7178 5.24452 24.7452C5.16745 24.9596 5.09002 25.1473 5.01222 25.3084C5.06701 25.4143 5.04144 25.4947 4.93551 25.5495C4.85772 25.7105 4.79307 25.8581 4.74156 25.9922C4.76859 26.0185 4.78229 26.0449 4.78266 26.0716C4.81078 26.1779 4.75855 26.2586 4.62596 26.3138C4.57483 26.4745 4.52351 26.6219 4.47201 26.7559C4.49867 26.7556 4.51237 26.782 4.5131 26.8354C4.56789 26.9413 4.51566 27.022 4.3564 27.0775C4.3049 27.2116 4.2534 27.3456 4.2019 27.4797C4.22893 27.506 4.24263 27.5325 4.24299 27.5591C4.29779 27.6651 4.24592 27.7725 4.0874 27.8813C4.03553 27.9887 3.99718 28.1092 3.97234 28.2429C3.97271 28.2696 3.9864 28.2961 4.01343 28.3224C4.06822 28.4283 4.00284 28.5225 3.81729 28.6051C3.76616 28.7658 3.72799 28.8997 3.70278 29.0067C3.72945 29.0063 3.75648 29.0326 3.78387 29.0856C3.81163 29.1652 3.78588 29.2322 3.70662 29.2867C3.73365 29.313 3.74735 29.3394 3.74771 29.3661L4.43533 29.9167C4.6753 29.9134 4.91528 29.9102 5.15526 29.9069C5.39524 29.9036 5.63521 29.9003 5.87519 29.897C6.64882 29.9131 7.40893 29.916 8.15553 29.9057C8.90212 29.8955 9.64817 29.8453 10.3937 29.7551C10.5003 29.7536 10.5937 29.7523 10.6736 29.7512C10.7803 29.7498 10.8736 29.7485 10.9536 29.7474C11.1403 29.7448 11.3136 29.7424 11.4736 29.7402C11.6599 29.711 11.8328 29.682 11.9924 29.6531C12.152 29.6243 12.2985 29.6089 12.4318 29.6071C12.5915 29.5782 12.7374 29.5229 12.8696 29.4411C13.0811 29.3048 13.2252 29.1162 13.3019 28.8751C13.4052 28.6337 13.4953 28.3924 13.572 28.1513C13.6231 27.9906 13.6743 27.8299 13.7254 27.6692C13.7762 27.4818 13.8269 27.2944 13.8777 27.107C13.877 27.0537 13.8898 27.0135 13.9161 26.9865C13.9424 26.9595 13.9553 26.9326 13.955 26.906C14.0061 26.7453 14.0307 26.5982 14.0289 26.4649C14.0271 26.3316 14.1188 26.2103 14.304 26.1011C14.4095 26.0197 14.5156 25.9782 14.6223 25.9767C14.7289 25.9753 14.8358 25.9871 14.9428 26.0123C15.0498 26.0376 15.1433 26.0496 15.2233 26.0485C15.4637 26.0719 15.704 26.0953 15.9444 26.1186C16.1843 26.1153 16.4243 26.1121 16.6643 26.1088C17.4649 26.1511 18.2519 26.167 19.0252 26.1564C19.8251 26.1454 20.6252 26.1478 21.4255 26.1635C21.5588 26.1617 21.6923 26.1732 21.826 26.198C21.9593 26.1962 22.106 26.1942 22.266 26.192C22.3193 26.1913 22.4124 26.1767 22.5454 26.1482C22.652 26.1467 22.7587 26.1452 22.8653 26.1438C22.9987 26.1419 23.1192 26.1803 23.227 26.2588C23.3884 26.3633 23.4702 26.4955 23.4724 26.6555C23.5009 26.7885 23.5429 26.9346 23.5984 27.0938C23.6817 27.3327 23.7517 27.5718 23.8083 27.811C23.8912 28.0232 23.9743 28.2488 24.0576 28.4877C24.1124 28.5936 24.1538 28.6997 24.182 28.806C24.2101 28.9123 24.2515 29.0184 24.3063 29.1243C24.3341 29.2039 24.3754 29.2967 24.4302 29.4026C24.4846 29.4819 24.5523 29.561 24.6334 29.6399C24.6601 29.6395 24.6736 29.6527 24.674 29.6793C24.728 29.7319 24.7686 29.7714 24.7956 29.7977C24.903 29.8495 25.0237 29.9012 25.1578 29.9527L25.4361 29.8289ZM15.9673 19.0377C15.7233 18.7476 15.7072 18.5478 15.9191 18.4383L16.2363 18.2339C16.4164 17.7514 16.5696 17.2559 16.696 16.7474C16.8224 16.239 16.9487 15.7306 17.0751 15.2221C17.0218 15.2228 16.9681 15.1969 16.914 15.1443C16.8859 15.038 16.9778 14.9301 17.1896 14.8205C17.2404 14.6331 17.2913 14.4591 17.3425 14.2984C17.2877 14.1924 17.3264 14.0986 17.4586 14.0167C17.4838 13.9097 17.5092 13.816 17.5348 13.7357C17.5866 13.6283 17.6254 13.5344 17.6509 13.4541C17.5446 13.4822 17.4641 13.4433 17.4093 13.3374C17.3808 13.2044 17.4197 13.1239 17.526 13.0957L17.8849 13.0108C17.9353 12.7968 17.9859 12.596 18.0366 12.4087C18.0366 12.4087 18.0498 12.3952 18.0761 12.3681C17.9972 12.4492 17.9172 12.4503 17.8361 12.3714C17.7287 12.3195 17.7404 12.1994 17.8712 12.0109C17.8708 11.9842 17.8971 11.9572 17.9501 11.9298C18.003 11.9024 18.0562 11.8883 18.1095 11.8876C18.1325 11.6206 18.2636 11.4588 18.5029 11.4022C18.7421 11.3456 18.8895 11.3969 18.945 11.5561C19.0002 11.6887 19.0422 11.8348 19.0711 11.9944C19.0732 12.1544 19.088 12.2609 19.1154 12.3139C19.2268 12.659 19.3383 13.0042 19.4497 13.3494C19.5607 13.6679 19.6719 13.9997 19.7833 14.3449C19.9514 14.9293 20.1196 15.5271 20.288 16.1382C20.4827 16.7222 20.6773 17.3063 20.872 17.8903C20.8994 17.9433 20.954 18.0359 21.0359 18.1681C21.0906 18.274 21.1323 18.3935 21.1608 18.5264C21.2156 18.6323 21.1772 18.7529 21.0457 18.888C20.9409 19.0228 20.8218 19.0911 20.6885 19.0929C20.5818 19.0944 20.4617 19.0827 20.328 19.0579C20.1939 19.0064 20.1002 18.981 20.0469 18.9817C19.5399 18.962 19.0329 18.9423 18.526 18.9226C18.019 18.9029 17.512 18.8831 17.005 18.8634C16.9535 18.9975 16.9018 19.1182 16.85 19.2256C16.7466 19.467 16.5468 19.4831 16.2506 19.2738C16.1706 19.2749 16.1035 19.2491 16.0495 19.1965C15.9954 19.1439 15.968 19.091 15.9673 19.0377ZM18.3429 14.3246L18.7412 14.1992C18.6857 14.0399 18.6176 13.9342 18.5369 13.8819C18.4854 14.016 18.4207 14.1636 18.3429 14.3246ZM18.9927 15.0358C18.9372 14.8766 18.8954 14.7438 18.8673 14.6375C18.8399 14.5845 18.8262 14.558 18.8262 14.558L18.189 14.7668C18.1386 14.9808 18.0752 15.2217 17.9989 15.4895L18.3172 15.3651L18.9927 15.0358ZM19.2026 15.753C19.1471 15.5937 19.1052 15.461 19.0771 15.3547L18.4816 15.6829C18.4549 15.6832 18.4416 15.6834 18.4416 15.6834L17.8844 15.8911C17.8336 16.0785 17.8089 16.2255 17.8104 16.3321L18.4859 16.0028L19.2026 15.753ZM19.4119 16.4302C19.3564 16.2709 19.3016 16.165 19.2475 16.1124L18.6109 16.3612L17.9348 16.6505L17.6559 16.7343C17.6307 16.8413 17.6055 16.9483 17.5803 17.0554L17.9781 16.8899C17.9781 16.8899 17.9914 16.8897 18.018 16.8893L18.6958 16.72L19.4119 16.4302ZM17.3518 17.8986C17.5388 17.9227 17.7523 17.9331 17.9923 17.9298L18.4295 17.7238L19.0262 17.4756C19.0262 17.4756 19.0393 17.4621 19.0656 17.435L19.6634 17.2668C19.6356 17.1872 19.6079 17.1076 19.5801 17.0279C19.5523 16.9483 19.4981 16.8824 19.4174 16.8302L18.8202 17.0384L18.103 17.2482L17.4658 17.457C17.4413 17.6173 17.4033 17.7645 17.3518 17.8986ZM18.7928 17.9588C18.9531 17.9833 19.1133 17.9944 19.2733 17.9922C19.4599 17.9897 19.6597 17.9736 19.8727 17.944C19.8446 17.8377 19.8162 17.7181 19.7878 17.5852L19.1905 17.7934L18.7928 17.9588ZM18.6384 27.1218C18.585 27.1225 18.5317 27.1233 18.4784 27.124L18.1206 27.2889L18.6384 27.1218ZM34.0539 28.1506C33.9732 28.0984 33.906 28.0593 33.8523 28.0334C33.7719 28.0078 33.7053 28.0087 33.6523 28.0361C33.599 28.0368 33.5723 28.0372 33.5723 28.0372C33.5723 28.0372 33.6258 28.0498 33.7328 28.075C33.8395 28.0735 33.9465 28.0987 34.0539 28.1506ZM7.56874 30.8739C7.54208 30.8742 7.51541 30.8746 7.48875 30.875L7.24987 30.9583L7.56874 30.8739ZM50.9052 29.1997C50.9052 29.1997 50.9185 29.1996 50.9452 29.1992C50.9718 29.1988 51.025 29.1848 51.1046 29.157L51.6618 28.9494C51.7681 28.9212 51.8486 28.9601 51.9034 29.066C51.9316 29.1723 51.8927 29.2529 51.7867 29.3077L51.189 29.4759L50.6323 29.7235L50.0762 30.0112C50.0762 30.0112 50.0629 30.0114 50.0362 30.0117L49.479 30.2194C49.479 30.2194 49.3725 30.2342 49.1596 30.2638L48.5618 30.432C48.5618 30.432 48.5485 30.4322 48.5219 30.4325C48.5222 30.4592 48.4957 30.4729 48.4424 30.4736C48.4424 30.4736 48.4426 30.487 48.443 30.5136C48.4163 30.514 48.403 30.5142 48.403 30.5142L47.7658 30.7229C47.7395 30.7499 47.6461 30.7512 47.4858 30.7268C47.4591 30.7271 47.4458 30.7273 47.4458 30.7273L46.888 30.895C46.7821 30.9498 46.7016 30.9109 46.6464 30.7783L46.0892 30.9859C45.9833 31.0407 45.9029 31.0151 45.8481 30.9092L45.2909 31.1169C45.1846 31.145 45.1176 31.1192 45.0898 31.0396L44.4532 31.2884C44.3473 31.3432 44.2669 31.3176 44.2121 31.2117L43.9343 31.3755C43.8284 31.4303 43.7481 31.4047 43.6933 31.2988C43.6118 31.1932 43.6241 31.1131 43.73 31.0583L44.1666 30.8123L43.6094 31.0199L42.9728 31.2687C42.8935 31.3231 42.8269 31.324 42.7728 31.2714C42.6928 31.2725 42.6256 31.2334 42.5712 31.1542C42.5705 31.1008 42.5434 31.0745 42.4901 31.0753L41.774 31.3651C41.6677 31.3932 41.6005 31.3541 41.5724 31.2479C41.545 31.1949 41.5444 31.1549 41.5707 31.1279L41.133 31.2939C41.0267 31.322 40.9461 31.2831 40.8913 31.1772C40.8632 31.0709 40.9021 30.9903 41.008 30.9356L41.6452 30.7268C41.6452 30.7268 41.6451 30.7135 41.6447 30.6868L42.4013 30.4364C42.321 30.4108 42.2143 30.4123 42.0814 30.4408L41.4436 30.6096L40.7664 30.8189L40.1292 31.0276C39.9963 31.0561 39.9157 31.0172 39.8876 30.9109C39.8872 30.8842 39.887 30.8709 39.887 30.8709L39.3704 31.118C39.2641 31.1461 39.1836 31.1072 39.1288 31.0013C39.1006 30.895 39.1395 30.8145 39.2455 30.7597L39.8821 30.511C39.9088 30.5106 39.9221 30.5104 39.9221 30.5104L40.5988 30.2611L40.956 30.0562C40.9027 30.0569 40.8627 30.0575 40.836 30.0578L40.5571 30.1417L39.841 30.4315C39.841 30.4315 39.8412 30.4448 39.8416 30.4715L39.2038 30.6403L38.5677 30.929C38.4618 30.9838 38.3813 30.9449 38.3261 30.8123C38.2987 30.7593 38.3113 30.7058 38.3639 30.6518L37.8856 30.7783C37.7793 30.8065 37.7121 30.7674 37.684 30.6611C37.6555 30.5281 37.6944 30.4476 37.8007 30.4195L38.4784 30.2502L39.0756 30.042L39.6712 29.7138C39.5375 29.6889 39.4171 29.6639 39.3101 29.6387L38.9912 29.7231L38.3946 29.9713L37.7974 30.1795C37.7707 30.1799 37.7574 30.18 37.7574 30.18L37.0802 30.3893C36.9739 30.4175 36.8934 30.3786 36.8386 30.2726C36.8375 30.1927 36.8632 30.1256 36.9158 30.0716L36.3186 30.2798C36.2127 30.3346 36.1457 30.3088 36.1175 30.2025C36.0627 30.0966 36.0883 30.0162 36.1942 29.9614L36.8309 29.7127L37.4681 29.5039L38.0236 29.1763C37.9703 29.177 37.9035 29.1646 37.8231 29.139C37.7694 29.1131 37.6894 29.1142 37.5831 29.1423L36.867 29.4322L36.3093 29.5998L35.6732 29.8886C35.5673 29.9434 35.4867 29.9045 35.4316 29.7719C35.4034 29.6656 35.4423 29.585 35.5483 29.5303L36.1449 29.2821C36.1716 29.2817 36.1849 29.2815 36.1849 29.2815L36.7421 29.0739L37.2593 28.8667C37.2056 28.8408 37.1386 28.8151 37.0583 28.7895C37.0046 28.7636 36.9244 28.7513 36.8177 28.7528L36.2216 29.041L35.625 29.2892L35.0278 29.4974C34.9215 29.5255 34.8543 29.4864 34.8261 29.3801C34.7713 29.2742 34.8102 29.1937 34.9428 29.1385L35.5006 28.9709L36.0573 28.7232L36.4939 28.4772C36.3865 28.4253 36.2521 28.3472 36.0907 28.2427L35.494 28.4909L34.8968 28.6991C34.8968 28.6991 34.8835 28.6993 34.8568 28.6997L34.2196 28.9084C34.0867 28.9369 34.0061 28.898 33.978 28.7917C33.9499 28.6854 33.9888 28.6049 34.0947 28.5501L34.7724 28.3808L35.3691 28.1326L35.7669 27.9671C35.7398 27.9408 35.6995 27.9147 35.6458 27.8888C35.5917 27.8362 35.5512 27.7967 35.5241 27.7704L34.8869 27.9792L34.3308 28.2668C34.3308 28.2668 34.3175 28.267 34.2908 28.2674L33.6136 28.4767C33.4807 28.5052 33.4 28.4529 33.3715 28.32C33.3433 28.2137 33.3824 28.1465 33.4887 28.1184L34.1659 27.9091L34.7226 27.6614C34.7226 27.6614 34.7359 27.6612 34.7626 27.6609L35.2403 27.4943C35.1052 27.3628 34.9972 27.2709 34.9165 27.2187C34.9165 27.2187 34.9167 27.232 34.9171 27.2587L34.2404 27.508L33.6443 27.7962L33.0471 28.0044C32.9408 28.0325 32.8736 27.9934 32.8455 27.8871C32.7903 27.7546 32.8292 27.674 32.9622 27.6455L33.5194 27.4379L34.0761 27.1902L34.7127 26.9415C34.6039 26.7829 34.4952 26.6378 34.3867 26.5059L33.9095 26.7125L33.2739 27.0412L32.5584 27.371C32.4521 27.3992 32.3716 27.3603 32.3168 27.2543C32.2886 27.148 32.3275 27.0675 32.4335 27.0127L33.1096 26.7234L33.7851 26.3941L34.2223 26.1881C34.1405 26.0559 34.0722 25.9368 34.0174 25.8309L33.6202 26.0364L32.943 26.2457L32.2669 26.535C32.161 26.5897 32.0806 26.5642 32.0258 26.4582C31.971 26.3523 32.0099 26.2718 32.1425 26.2166L32.8181 25.8873C32.8447 25.887 32.8581 25.8868 32.8581 25.8868L33.4953 25.678L33.8925 25.4726C33.8644 25.3663 33.8362 25.26 33.8081 25.1537L33.4503 25.3186L32.8131 25.5274L32.1354 25.6967C32.0028 25.7518 31.9223 25.7129 31.8938 25.58C31.8657 25.4737 31.9047 25.4065 32.011 25.3784L32.7282 25.1685L33.326 25.0003L33.7232 24.7948C33.6947 24.6619 33.6669 24.5822 33.6399 24.5559L32.9633 24.8052L32.2866 25.0545C32.1807 25.1093 32.1003 25.0838 32.0455 24.9778C32.0174 24.8715 32.0563 24.791 32.1622 24.7362L32.7989 24.4875C32.8248 24.4338 32.8643 24.3932 32.9172 24.3658L33.5133 24.0776C33.54 24.0773 33.5533 24.0771 33.5533 24.0771L33.7522 23.9944C33.803 23.807 33.8939 23.6324 34.0251 23.4706C34.261 23.174 34.5253 22.997 34.8179 22.9397C35.1371 22.8819 35.47 22.8507 35.8167 22.846C35.87 22.8452 35.91 22.8447 35.9367 22.8443C36.0433 22.8428 36.15 22.8414 36.2566 22.8399C36.3633 22.8385 36.4833 22.8368 36.6166 22.835C36.6166 22.835 36.6299 22.8348 36.6566 22.8344C36.6833 22.8341 36.7099 22.8337 36.7366 22.8333C36.8166 22.8322 36.8832 22.8313 36.9366 22.8306C37.0966 22.8284 37.2565 22.8262 37.4165 22.824C37.5765 22.8218 37.7365 22.8196 37.8965 22.8174C37.8961 22.7908 37.8959 22.7774 37.8959 22.7774C37.8408 22.6449 37.8797 22.5643 38.0126 22.5358L38.5698 22.3282L39.1265 22.0805C39.1532 22.0801 39.1665 22.08 39.1665 22.08L39.8037 21.8712C39.7233 21.8456 39.643 21.8201 39.5626 21.7945L39.2048 21.9594C39.2048 21.9594 39.1915 21.9596 39.1648 21.96L38.6076 22.1676L37.971 22.4164L37.2954 22.7457C37.1895 22.8005 37.1092 22.7749 37.0544 22.669C36.9992 22.5364 37.0248 22.456 37.1311 22.4279L37.8466 22.0981L38.4427 21.8099C38.4427 21.8099 38.4561 21.8097 38.4827 21.8093L39.0799 21.6011C38.9462 21.5763 38.8257 21.5379 38.7183 21.4861L38.3994 21.5704L37.8033 21.8586L37.1272 22.1479L36.53 22.3561C36.3974 22.4113 36.3171 22.3857 36.289 22.2794C36.2338 22.1468 36.2594 22.0665 36.3657 22.0384L37.0023 21.7896L37.639 21.5409L38.2351 21.2527C38.1547 21.2271 38.0743 21.2015 37.994 21.176L37.7557 21.2992L37.1596 21.5874L36.4418 21.7573L35.8052 22.006C35.6992 22.0608 35.6187 22.0219 35.5635 21.8893C35.5354 21.783 35.5745 21.7158 35.6808 21.6877L36.3174 21.439C36.3174 21.439 36.3308 21.4388 36.3574 21.4384L37.0346 21.2291L37.5913 20.9815C37.5106 20.9292 37.4298 20.877 37.3491 20.8248C37.2954 20.7988 37.2417 20.7729 37.188 20.747L36.9097 20.8708L36.3125 21.079L35.7164 21.3672C35.7168 21.3939 35.7169 21.4072 35.7169 21.4072L35.0403 21.6565C34.9344 21.7113 34.8673 21.6855 34.8392 21.5792C34.7844 21.4733 34.81 21.3929 34.9159 21.3382L35.552 21.0494L36.1881 20.7607C36.1878 20.734 36.1876 20.7207 36.1876 20.7207L36.8248 20.5119C36.7707 20.4593 36.7035 20.4202 36.6232 20.3947C36.5424 20.3424 36.4486 20.3037 36.3415 20.2785L35.6654 20.5678L34.9482 20.7777L34.3516 21.0259C34.2457 21.0807 34.1653 21.0551 34.1105 20.9492C34.0557 20.8432 34.0813 20.7629 34.1872 20.7081L34.8239 20.4593C34.8239 20.4593 34.8237 20.446 34.8233 20.4193C34.85 20.419 34.8633 20.4188 34.8633 20.4188L35.5411 20.2495L36.0972 19.9618C36.0435 19.9359 35.9898 19.91 35.9361 19.884C35.882 19.8314 35.8148 19.7924 35.7345 19.7668L35.0973 19.9755L34.4195 20.1448L33.7029 20.3947C33.5966 20.4228 33.516 20.3839 33.4613 20.278C33.4331 20.1717 33.472 20.0912 33.578 20.0364L34.2951 19.8265L35.0123 19.6167L35.5301 19.4496C35.4216 19.3177 35.3131 19.1858 35.2046 19.054L34.568 19.3027L33.8908 19.512L33.2547 19.8008C33.1488 19.8556 33.0684 19.83 33.0136 19.7241C32.9588 19.6182 32.9844 19.5378 33.0903 19.483L33.7659 19.1537C33.7925 19.1533 33.8059 19.1532 33.8059 19.1532L34.4431 18.9444L34.9603 18.7373C34.8785 18.6051 34.7966 18.4729 34.7148 18.3406L34.0776 18.5494L33.4404 18.7581L32.8049 19.0869C32.6989 19.1417 32.6186 19.1161 32.5638 19.0102C32.509 18.9042 32.5346 18.8239 32.6405 18.7691L33.2761 18.4404C33.3027 18.44 33.316 18.4398 33.316 18.4398L33.9527 18.1911L34.5504 18.0229C34.4949 17.8636 34.4394 17.7043 34.3839 17.5451L33.8667 17.7522L33.3106 18.0398L32.6334 18.2492C32.5274 18.3039 32.4471 18.2784 32.3923 18.1724C32.3638 18.0395 32.4027 17.959 32.509 17.9308L33.1456 17.6821L33.7423 17.4339L34.299 17.1862C34.2708 17.0799 34.2427 16.9736 34.2146 16.8673L33.6174 17.0756L32.9413 17.3648L32.3857 17.6925C32.2798 17.7473 32.1994 17.7217 32.1446 17.6158C32.0632 17.5102 32.0754 17.4301 32.1814 17.3753L32.7769 17.0471L33.4925 16.7172L34.1691 16.4679C34.1673 16.3346 34.1653 16.188 34.1631 16.028L33.6053 16.1956L32.9687 16.4444L32.3315 16.6531C32.2255 16.7079 32.1452 16.6824 32.0904 16.5764C32.0619 16.4435 32.1008 16.3629 32.2071 16.3348L32.8437 16.0861L33.4809 15.8773L34.1576 15.628C34.1554 15.468 34.1665 15.3079 34.191 15.1475L33.7132 15.3141L32.9971 15.6039L32.4399 15.8116C32.3337 15.8397 32.2531 15.8008 32.1983 15.6949C32.1698 15.5619 32.2087 15.4814 32.315 15.4533L32.9122 15.245L33.5889 14.9957L34.265 14.7065C34.265 14.7065 34.2648 14.6931 34.2644 14.6665C34.2904 14.6128 34.3033 14.5859 34.3033 14.5859C34.3552 14.4785 34.4202 14.3576 34.4984 14.2232L33.9023 14.5114L33.3062 14.7996C33.3065 14.8263 33.3065 14.8263 33.3062 14.7996L32.6306 15.1289C32.5247 15.1837 32.4443 15.1581 32.3895 15.0522C32.3347 14.9463 32.3603 14.8659 32.4662 14.8111L33.1418 14.4818L33.7379 14.1936L34.3734 13.8649C34.4001 13.8645 34.4134 13.8643 34.4134 13.8643L34.8112 13.6989C34.8897 13.5911 34.942 13.5104 34.9679 13.4567L34.2918 13.746L33.7351 13.9936L33.139 14.2818C33.0331 14.3366 32.9528 14.3111 32.898 14.2051C32.8432 14.0992 32.8687 14.0189 32.9747 13.9641L33.5708 13.6759L34.1669 13.3877L34.8035 13.1389L35.3996 12.8507C35.4259 12.8237 35.4526 12.8233 35.4796 12.8496C35.5848 12.7415 35.6767 12.6336 35.7552 12.5258L35.3175 12.6918L34.6814 12.9806L34.1247 13.2282L33.4891 13.557C33.3832 13.6118 33.3029 13.5862 33.2481 13.4803C33.1933 13.3744 33.2322 13.2938 33.3648 13.2387L33.9603 12.9105L34.557 12.6623L34.8348 12.4984L34.5559 12.5823L33.8798 12.8716C33.7472 12.9267 33.6667 12.8878 33.6382 12.7549C33.5834 12.6489 33.6091 12.5819 33.7154 12.5538L34.4315 12.2639L35.1087 12.0546L35.7853 11.8053L36.182 11.5599L35.7437 11.6859L35.0271 11.9357L34.3904 12.1845C34.2841 12.2126 34.2036 12.1737 34.1488 12.0678C34.1207 11.9615 34.1596 11.881 34.2655 11.8262L34.9421 11.5769C34.941 11.4969 34.9803 11.443 35.0599 11.4152L35.7771 11.2054C35.7768 11.1787 35.7899 11.1652 35.8166 11.1649L36.3727 10.8772C36.3716 10.7972 36.4107 10.73 36.4899 10.6756L37.2055 10.3457C37.2314 10.292 37.2709 10.2515 37.3238 10.2241L37.7616 10.0581L38.4382 9.80879L39.0749 9.56005C39.1012 9.53302 39.141 9.51914 39.1943 9.51841C39.6432 9.19222 40.0529 8.91991 40.4232 8.70148C40.4232 8.70148 40.4497 8.68779 40.5027 8.66039C40.5556 8.633 40.5821 8.6193 40.5821 8.6193C41.1402 8.4783 41.6989 8.3773 42.2581 8.3163C42.8436 8.22827 43.4293 8.15356 44.0152 8.09219C44.4682 8.05932 44.9213 8.03977 45.3746 8.03356C45.8541 8.00032 46.3208 7.99392 46.7744 8.01437C46.7744 8.01437 46.7878 8.01419 46.8144 8.01382C47.6421 8.08248 48.5509 8.23004 49.5407 8.4565C50.5302 8.65629 51.3881 8.97789 52.1142 9.42131C52.6245 9.68101 53.1086 9.98107 53.5667 10.3215C54.0514 10.6615 54.4837 11.069 54.8636 11.5438C55.0535 11.7813 55.2305 12.0455 55.3945 12.3366C55.5581 12.6011 55.6819 12.8794 55.766 13.1716C55.7933 13.2246 55.8209 13.2909 55.8487 13.3705C55.9046 13.5564 55.9469 13.7292 55.9758 13.8888C56.0313 14.0481 56.0204 14.2216 55.9429 14.4093C55.7377 14.9988 55.3709 15.4839 54.8428 15.8645C54.7105 15.9463 54.578 16.0015 54.445 16.03C54.3383 16.0315 54.2184 16.0331 54.085 16.0349C53.9514 16.0101 53.8445 15.9982 53.7645 15.9993C53.6582 16.0274 53.5251 16.0426 53.3651 16.0448C53.2318 16.0466 53.0722 16.0755 52.8862 16.1314L52.1696 16.3812C52.0637 16.436 51.9833 16.4104 51.9285 16.3045C51.9278 16.2512 51.9273 16.2112 51.9269 16.1845L51.4102 16.4316C51.3043 16.4864 51.2241 16.4742 51.1697 16.3949L50.8514 16.5193C51.469 16.8309 52.1548 17.2482 52.9087 17.7712C53.6889 18.2672 54.4165 18.8173 55.0915 19.4214C55.7929 19.9986 56.334 20.5645 56.715 21.1194C56.715 21.1194 56.7287 21.1458 56.7561 21.1988C56.7568 21.2521 56.7705 21.2786 56.7972 21.2782C56.9918 21.8623 57.0938 22.4876 57.1029 23.1542C57.1117 23.7942 57.0401 24.4085 56.8881 24.9973C56.8881 24.9973 56.8752 25.0242 56.8492 25.0779C56.8237 25.1582 56.8109 25.1984 56.8109 25.1984C56.4968 25.6294 56.0097 26.0895 55.3497 26.5786C54.6893 27.041 53.9622 27.5044 53.1685 27.9686C52.3748 28.4329 51.6204 28.8432 50.9052 29.1997ZM45.86 14.2675C45.966 14.2127 46.0463 14.2383 46.1011 14.3442C46.1015 14.3709 46.1018 14.3975 46.1022 14.4242C46.1829 14.4764 46.2772 14.5418 46.3849 14.6203C46.5464 14.7248 46.6673 14.7898 46.7476 14.8154C46.8806 14.7869 46.9611 14.8258 46.9893 14.9321C46.9896 14.9587 46.99 14.9854 46.9904 15.0121C47.017 15.0117 47.0303 15.0115 47.0303 15.0115C47.2451 15.1153 47.4858 15.1653 47.7525 15.1616C47.8584 15.1068 47.9388 15.1324 47.9935 15.2383C48.0202 15.238 48.0337 15.2511 48.0341 15.2778C48.0874 15.2771 48.1274 15.2765 48.1541 15.2761L48.5119 15.1112C48.6448 15.0827 48.7253 15.1216 48.7535 15.2279C48.7805 15.2542 48.794 15.2674 48.794 15.2674L48.834 15.2668L49.2718 15.1008C49.4047 15.0723 49.4853 15.1112 49.5134 15.2175C49.5138 15.2442 49.514 15.2575 49.514 15.2575L49.5939 15.2564L50.0317 15.0904C50.138 15.0623 50.2185 15.1012 50.2733 15.2071C50.2733 15.2071 50.2735 15.2204 50.2739 15.2471C50.3539 15.246 50.4205 15.2451 50.4739 15.2443L50.7516 15.0805C50.8579 15.0524 50.9385 15.0913 50.9933 15.1972C51.0733 15.1961 51.1533 15.195 51.2332 15.1939L51.5116 15.0701C51.6179 15.042 51.6984 15.0809 51.7532 15.1868C51.8062 15.1594 51.8726 15.1452 51.9526 15.1441C52.0326 15.143 52.1391 15.1282 52.272 15.0997C52.3513 15.0453 52.4182 15.0577 52.4726 15.1369C52.5526 15.1358 52.6326 15.1347 52.7126 15.1337C52.7922 15.1059 52.8853 15.0913 52.992 15.0898C53.0712 15.0354 53.1379 15.0345 53.192 15.0871C53.272 15.086 53.3519 15.0849 53.4319 15.0838C53.5386 15.0823 53.6317 15.0677 53.7114 15.04C53.738 15.0396 53.7514 15.0394 53.7514 15.0394C53.8314 15.0383 53.8982 15.0507 53.9519 15.0767C54.1389 15.1008 54.2456 15.0993 54.2719 15.0723C54.6415 14.8005 54.8904 14.4771 55.0186 14.1019C55.0446 14.0483 55.0437 13.9816 55.0159 13.902C54.9878 13.7957 54.9598 13.7027 54.9321 13.6231C54.9043 13.5435 54.8769 13.4905 54.8499 13.4642C54.7666 13.2253 54.6568 13.0001 54.5206 12.7886C54.4106 12.5501 54.2742 12.3253 54.1113 12.1142C53.7859 11.7186 53.4078 11.3771 52.9772 11.0896C52.5461 10.7755 52.1023 10.5016 51.6458 10.2678C51.6187 10.2415 51.6052 10.2284 51.6052 10.2284C50.9598 9.83718 50.169 9.54132 49.2328 9.3408C48.3233 9.13991 47.4949 9.01792 46.7476 8.97483C46.2939 8.95438 45.8406 8.96059 45.3877 8.99347C44.9611 8.99932 44.5213 9.01868 44.0684 9.05156C43.5358 9.11219 43.0033 9.17283 42.4707 9.23347C41.9382 9.29411 41.4062 9.39474 40.8747 9.53538C40.5043 9.75381 40.0423 10.0935 39.4886 10.5545C38.9345 10.9888 38.3544 11.4768 37.7485 12.0185C37.1425 12.5601 36.603 13.0876 36.13 13.6008C35.6836 14.1136 35.3697 14.558 35.1882 14.9338C35.1396 15.2812 35.1179 15.6415 35.123 16.0148C35.1277 16.3615 35.1725 16.7075 35.2572 17.0531C35.2576 17.0797 35.2578 17.0931 35.2578 17.0931C35.2581 17.1197 35.2585 17.1464 35.2589 17.1731C35.2859 17.1994 35.2996 17.2258 35.3 17.2525C35.4947 17.8366 35.8219 18.3655 36.2818 18.8392C36.7683 19.3126 37.2803 19.6923 37.8176 19.9783C38.3819 20.2906 38.9723 20.5625 39.5889 20.7941C40.2321 21.0253 40.8746 21.2031 41.5164 21.3277C41.9175 21.4022 42.3052 21.4769 42.6796 21.5518C43.0803 21.5996 43.4812 21.6608 43.8822 21.7353C44.1499 21.8116 44.4044 21.8882 44.6454 21.9649C44.9128 22.0145 45.1672 22.0911 45.4086 22.1944C45.5427 22.2459 45.6769 22.3108 45.8113 22.3889C45.9721 22.4401 46.1065 22.5182 46.2146 22.6234C46.3235 22.7819 46.4192 22.954 46.5017 23.1395C46.6109 23.3247 46.6137 23.5247 46.5099 23.7395C46.5636 23.7654 46.6042 23.8049 46.6316 23.8578C46.6597 23.9641 46.6208 24.0446 46.5149 24.0994L46.1571 24.2644C46.1571 24.2644 46.1438 24.2645 46.1171 24.2649C46.1171 24.2649 46.0906 24.2786 46.0376 24.306C45.9054 24.3878 45.6932 24.4707 45.401 24.5547L45.0427 24.6797C44.9367 24.7345 44.8562 24.6956 44.8011 24.563C44.8007 24.5363 44.8003 24.5096 44.8 24.483C44.6929 24.4578 44.5726 24.4328 44.4389 24.4079C44.3319 24.3827 44.2115 24.3577 44.0778 24.3329C43.9719 24.3877 43.8914 24.3488 43.8362 24.2162C43.8362 24.2162 43.836 24.2028 43.8357 24.1762C43.7279 24.0976 43.6203 24.0324 43.5129 23.9806C43.4052 23.902 43.2843 23.837 43.1502 23.7855C43.0699 23.76 42.9762 23.7346 42.8692 23.7094C42.7884 23.6571 42.6814 23.6319 42.5481 23.6338C42.4418 23.6619 42.3613 23.623 42.3065 23.5171C42.3065 23.5171 42.3063 23.5037 42.3059 23.4771C42.2793 23.4774 42.2526 23.4778 42.2259 23.4782C42.1456 23.4526 42.0656 23.4537 41.986 23.4815C41.906 23.4826 41.8262 23.497 41.7465 23.5247C41.7465 23.5247 41.6934 23.5388 41.5871 23.5669C41.5075 23.5947 41.4408 23.5956 41.3871 23.5697C41.2805 23.5711 41.1607 23.5861 41.0277 23.6146C40.921 23.6161 40.8144 23.6175 40.7077 23.619C40.0685 23.6811 39.4291 23.7299 38.7896 23.7653C38.1763 23.7737 37.5497 23.7823 36.9097 23.7911C36.8297 23.7922 36.7764 23.7929 36.7497 23.7933C36.7231 23.7936 36.6964 23.794 36.6698 23.7943C36.6431 23.7947 36.6164 23.7951 36.5898 23.7954C36.4831 23.7969 36.3764 23.7984 36.2698 23.7998C36.1631 23.8013 36.0565 23.8028 35.9498 23.8042C35.9232 23.8046 35.8565 23.8055 35.7498 23.807C35.6162 23.7821 35.4828 23.7839 35.3499 23.8124C35.2166 23.8143 35.0969 23.8426 34.991 23.8974C34.9647 23.9244 34.9119 23.9651 34.8327 24.0195C34.806 24.0199 34.7929 24.0334 34.7932 24.0601C34.7143 24.1412 34.676 24.2617 34.6782 24.4217C34.7048 24.4213 34.7185 24.4478 34.7193 24.5011C34.7737 24.5804 34.7613 24.6473 34.682 24.7017C34.7105 24.8346 34.7527 24.9941 34.8086 25.18C34.8623 25.2059 34.9028 25.2454 34.9302 25.2983C34.9309 25.3517 34.9183 25.4052 34.8924 25.4589C34.9746 25.6178 35.0701 25.7765 35.179 25.935C35.206 25.9613 35.2332 26.0009 35.2606 26.0539C35.2606 26.0539 35.2608 26.0672 35.2611 26.0939C35.5325 26.4369 35.8708 26.7922 36.2758 27.1601C36.3025 27.1597 36.3158 27.1595 36.3158 27.1595C36.6672 27.5014 37.1916 27.8142 37.8889 28.098C38.5861 28.3818 39.3497 28.6381 40.1796 28.8667C41.0095 29.0954 41.8123 29.2977 42.5882 29.4738C43.3906 29.6494 44.0728 29.8001 44.6345 29.9258L44.8718 29.7225C44.8718 29.7225 44.8983 29.7088 44.9512 29.6814C45.0042 29.654 45.044 29.6401 45.0707 29.6398C45.3373 29.6361 45.6039 29.6324 45.8706 29.6288C46.1635 29.5981 46.4565 29.5674 46.7494 29.5367C47.3086 29.4757 47.8675 29.3881 48.426 29.2737C48.8771 29.1075 49.4602 28.8462 50.1754 28.4897C50.9172 28.1328 51.6719 27.7358 52.4393 27.2985C53.233 26.8343 53.9469 26.3845 54.581 25.9491C55.2147 25.487 55.689 25.0671 56.0038 24.6894C56.1039 24.208 56.1503 23.7007 56.143 23.1674C56.1357 22.6341 56.0486 22.1152 55.8816 21.6108C55.5281 21.109 55.0141 20.5826 54.3398 20.0318C53.6919 19.454 53.0046 18.93 52.2781 18.4599C51.5516 17.9898 50.9064 17.612 50.3424 17.3263C49.7806 17.2007 49.2194 17.115 48.6587 17.0694C48.1247 17.0234 47.5772 16.9642 47.0161 16.8919C46.7221 16.8426 46.428 16.7933 46.134 16.744C45.8396 16.668 45.5585 16.5918 45.2908 16.5155C45.1301 16.4644 44.9694 16.4132 44.8086 16.3621C44.6746 16.3106 44.54 16.2191 44.4049 16.0876C44.2697 15.9561 44.1342 15.798 43.9983 15.6131C43.8891 15.4279 43.873 15.2281 43.9501 15.0137C44.0005 14.7997 44.1179 14.6114 44.3024 14.4489C44.5135 14.2859 44.7389 14.1895 44.9785 14.1596C45.2444 14.1026 45.5382 14.1386 45.86 14.2675ZM37.1764 11.1462C37.3083 11.0377 37.4533 10.9157 37.6115 10.7802L37.2142 10.9857C37.2153 11.0657 37.2027 11.1192 37.1764 11.1462ZM36.5842 11.7144C36.7686 11.5518 36.9531 11.3893 37.1375 11.2268C37.1109 11.2271 37.0975 11.2273 37.0975 11.2273L36.5009 11.4755C36.5279 11.5018 36.555 11.5281 36.582 11.5544C36.6094 11.6074 36.6101 11.6607 36.5842 11.7144ZM36.0714 12.2415C36.2028 12.1063 36.3343 11.9712 36.4658 11.836L35.9497 12.1231C36.003 12.1224 36.0436 12.1618 36.0714 12.2415ZM45.2771 15.5156L45.7138 15.2696C45.4449 15.1133 45.2574 15.0492 45.1511 15.0773C45.0448 15.1054 44.9655 15.1598 44.9133 15.2406C44.9407 15.2935 44.9947 15.3461 45.0755 15.3984C45.1025 15.4246 45.1697 15.4637 45.2771 15.5156ZM45.7592 15.669C45.9999 15.719 46.2271 15.7559 46.4408 15.7797C46.3601 15.7274 46.2525 15.6622 46.1181 15.5841C46.1177 15.5574 46.0909 15.5444 46.0376 15.5452C46.0109 15.5455 45.9181 15.5868 45.7592 15.669ZM50.7265 16.161C50.6731 16.1617 50.62 16.1758 50.567 16.2032L50.2887 16.327C50.3157 16.3533 50.3559 16.3661 50.4092 16.3653C50.4355 16.3383 50.4618 16.3113 50.4881 16.2842L50.7265 16.161ZM38.7764 22.8054L39.2531 22.5588L39.8886 22.2301C39.8623 22.2571 39.8623 22.2571 39.8886 22.2301C39.9153 22.2297 39.9286 22.2295 39.9286 22.2295L40.4064 22.063C40.3793 22.0367 40.3525 22.0237 40.3258 22.0241L39.9281 22.1895C39.9284 22.2162 39.9286 22.2295 39.9286 22.2295L39.2909 22.3983L38.6948 22.6865L38.3364 22.8114C38.4964 22.8092 38.6431 22.8072 38.7764 22.8054ZM40.3341 22.624C40.3341 22.624 40.3474 22.6238 40.3741 22.6235L40.9718 22.4553L41.3696 22.2898C41.3429 22.2902 41.3162 22.2905 41.2896 22.2909C41.2092 22.2653 41.1289 22.2398 41.0485 22.2142L40.7302 22.3386L40.053 22.5479L39.6958 22.7528C39.7758 22.7517 39.8557 22.7506 39.9357 22.7495C40.042 22.7214 40.1748 22.6795 40.3341 22.624ZM42.9733 22.5478C42.9466 22.5482 42.9066 22.5487 42.8533 22.5495C42.7999 22.5502 42.7066 22.5515 42.5733 22.5533C42.627 22.5793 42.6805 22.5919 42.7338 22.5911C42.7872 22.5904 42.867 22.576 42.9733 22.5478ZM43.8559 22.7358C43.7756 22.7102 43.722 22.6976 43.6954 22.698C43.6687 22.6983 43.6421 22.6987 43.6154 22.699L43.2965 22.7834C43.3502 22.8094 43.4174 22.8484 43.4981 22.9007L43.8559 22.7358ZM44.7791 22.9631C44.6721 22.9379 44.5649 22.8994 44.4575 22.8475L44.2186 22.9308L43.9008 23.0952C44.0086 23.1737 44.0758 23.2128 44.1025 23.2124L44.3008 23.0897C44.3008 23.0897 44.3141 23.0895 44.3408 23.0891L44.7791 22.9631ZM45.0273 23.5598L45.5445 23.3527C45.5175 23.3264 45.4905 23.3001 45.4634 23.2738C45.436 23.2208 45.3553 23.1686 45.2213 23.1171L44.9835 23.2804C44.9835 23.2804 44.9702 23.2805 44.9435 23.2809L44.5052 23.4069C44.5855 23.4325 44.6661 23.4714 44.7468 23.5236C44.8538 23.5488 44.9473 23.5609 45.0273 23.5598ZM38.7074 29.447C38.6537 29.421 38.6 29.3951 38.5463 29.3692L38.188 29.4941L37.6325 29.8217C37.6325 29.8217 37.6191 29.8219 37.5925 29.8223L37.1947 29.9877L37.673 29.8612L38.2697 29.613L38.7074 29.447ZM40.2333 29.8661C40.2333 29.8661 40.22 29.8663 40.1933 29.8666L39.7166 30.1132L40.2333 29.8661Z" fill="url(#paint0_linear_38_24)"/>
<defs>
<linearGradient id="paint0_linear_38_24" x1="60.9094" y1="-166.436" x2="0.915044" y2="-165.613" gradientUnits="userSpaceOnUse">
<stop stop-color="#6E11B0"/>
<stop offset="0.513016" stop-color="#62748E"/>
<stop offset="1" stop-color="#FDA5D5"/>
</linearGradient>
</defs>
</svg>
