<svg width="307" height="147" viewBox="0 0 307 147" fill="none" xmlns="http://www.w3.org/2000/svg">
<path d="M25.2791 144.793L22.4424 145.782C21.9392 146.042 21.6208 145.92 21.4872 145.415C21.3571 145.164 21.2912 144.975 21.2894 144.848L18.6453 146.024C18.2688 146.283 17.9504 146.16 17.6902 145.657L16.3707 146.435C15.8676 146.696 15.4859 146.574 15.2256 146.071C14.8387 145.57 14.8968 145.189 15.4 144.929L17.6642 143.757L15.2048 144.551L11.9907 145.735C11.4876 145.996 11.1059 145.874 10.8456 145.371C10.8422 145.118 10.8396 144.928 10.8378 144.801L9.51315 145.199C9.01 145.46 8.6925 145.401 8.56063 145.022C8.05575 145.156 7.67318 144.971 7.41293 144.468C7.2828 144.216 7.34266 143.962 7.59249 143.706L5.51571 144.684C5.01256 144.944 4.63086 144.823 4.37061 144.32C4.11036 143.817 4.2318 143.435 4.73495 143.175L7.37647 141.808C7.37647 141.808 7.4398 141.807 7.56645 141.806C7.56472 141.679 7.56385 141.616 7.56385 141.616L13.6068 138.873L14.9289 138.284C14.5385 137.53 14.2756 136.837 14.1403 136.205L12.8182 136.793L9.79676 138.165L6.96786 139.724C6.84121 139.725 6.77788 139.726 6.77788 139.726L3.75119 140.718C3.24804 140.978 2.86634 140.857 2.60608 140.354C2.47075 139.722 2.65552 139.339 3.16041 139.206L6.1845 138.024L9.016 136.655C9.14265 136.654 9.20598 136.653 9.20598 136.653L12.0375 135.284L13.7369 134.5C13.7334 134.247 13.6666 133.995 13.5365 133.743C13.4046 133.365 13.2103 133.051 12.9535 132.801L10.1194 133.98C10.1194 133.98 10.1203 134.043 10.122 134.17L7.09274 134.972L4.25863 136.151C3.75375 136.284 3.37118 136.099 3.11093 135.596C2.97733 135.091 3.1621 134.709 3.66525 134.448L6.50196 133.46C6.50196 133.46 6.56529 133.459 6.69194 133.457L9.52865 132.468L12.1728 131.292C12.1728 131.292 12.1719 131.228 12.1702 131.102C12.2968 131.1 12.3602 131.099 12.3602 131.099L13.4948 130.703C13.4862 130.07 13.2276 129.694 12.7193 129.574L9.6952 130.755L6.6685 131.747L3.45704 133.121C2.95389 133.381 2.57219 133.26 2.31194 132.757C2.05168 132.254 2.17313 131.872 2.67628 131.612L5.88514 130.048C6.01179 130.046 6.07512 130.045 6.07512 130.045L9.10181 129.053L11.9385 128.064L13.2606 127.476C13.2484 126.59 13.1764 125.957 13.0446 125.579L9.8331 126.953L7.00159 128.322C6.87494 128.324 6.81161 128.325 6.81161 128.325L3.59754 129.509C3.09266 129.643 2.71009 129.458 2.44983 128.955C2.31624 128.45 2.50101 128.067 3.00416 127.807L6.22083 126.813L9.24232 125.441L12.2612 123.88C12.2612 123.88 12.5136 123.813 13.0185 123.679C12.8815 122.921 12.6845 122.417 12.4277 122.167L9.02629 123.544L6.37956 124.53C6.37956 124.53 6.31624 124.531 6.18958 124.533C6.18958 124.533 6.19045 124.596 6.19219 124.723L3.35287 125.522C2.84799 125.656 2.46542 125.471 2.20517 124.968C2.07157 124.463 2.25721 124.143 2.76209 124.01L5.78878 123.018L8.43291 121.842L11.647 120.658L12.5917 120.265C12.5865 119.885 12.5813 119.505 12.5761 119.125C12.5709 118.745 12.5665 118.428 12.563 118.175L9.53895 119.357L6.52007 120.918C6.39341 120.92 6.33009 120.921 6.33009 120.921L3.11341 121.915C2.48187 122.05 2.09844 121.802 1.9631 121.171C1.8295 120.666 2.01514 120.346 2.52003 120.213L5.7367 119.219L8.94817 117.845L11.7797 116.476C11.9063 116.474 12.0954 116.408 12.347 116.278C12.3383 115.645 12.2672 115.075 12.1336 114.571L9.29428 115.37L6.27019 116.551L3.25131 118.113C2.74816 118.373 2.36646 118.251 2.10621 117.748C1.84595 117.245 1.9674 116.863 2.47055 116.603L5.48943 115.042L8.7009 113.668L12.1076 112.671C11.9722 112.039 11.9002 111.407 11.8915 110.774L9.42957 111.377L6.78805 112.744L3.95395 113.923C3.4508 114.183 3.0691 114.061 2.80884 113.558C2.54859 113.055 2.67004 112.673 3.17318 112.413L6.00469 111.044L8.64881 109.868C8.77547 109.866 8.83879 109.865 8.83879 109.865C8.83706 109.739 8.83619 109.675 8.83619 109.675L11.6781 109.066C11.6694 108.433 11.5983 107.864 11.4647 107.359L9.57529 108.145L6.35861 109.139L3.33192 110.131C2.70038 110.266 2.31781 110.081 2.18421 109.576C2.04888 108.945 2.23365 108.562 2.73853 108.429L5.95781 107.625L8.9819 106.443L11.2513 105.652C11.2409 104.892 11.168 104.196 11.0326 103.565L9.33062 104.158L6.49651 105.337L3.6598 106.326C3.15665 106.586 2.77495 106.465 2.5147 105.962C2.37936 105.33 2.56413 104.947 3.06902 104.814L5.71314 103.638L8.73723 102.456L11.0092 101.855C10.8756 101.35 10.8053 100.844 10.7984 100.338L9.47633 100.926L6.83481 102.292C6.70815 102.294 6.64482 102.295 6.64482 102.295L3.61813 103.286C2.98659 103.422 2.60402 103.237 2.47043 102.732C2.33509 102.1 2.51986 101.718 3.02475 101.584L6.05405 100.783L8.69557 99.4163L10.7723 98.4377C10.637 97.8062 10.565 97.1738 10.5563 96.5405L9.42164 96.9361L6.39495 97.9276L3.18348 99.3018C2.68033 99.562 2.29863 99.4406 2.03838 98.9375C1.90304 98.3059 2.08782 97.9233 2.5927 97.7897L5.61419 96.4182C5.74084 96.4165 5.80417 96.4156 5.80417 96.4156L8.82826 95.234L10.5303 94.6407C10.3967 94.1358 10.3255 93.5667 10.3169 92.9334L9.37216 93.3264L6.35328 94.8879C6.22663 94.8897 6.1633 94.8905 6.1633 94.8905L3.51657 95.8769C3.01169 96.0105 2.62912 95.8257 2.36886 95.3226C2.23353 94.691 2.4183 94.3085 2.92319 94.1749L5.56991 93.1885L8.5914 91.817C8.5914 91.817 8.65473 91.8161 8.78138 91.8144L10.2934 91.2236C10.283 90.4637 10.2093 89.7046 10.0722 88.9464L8.93751 89.342L5.91603 90.7135L3.08192 91.8925C2.57877 92.1527 2.1962 91.968 1.93421 91.3382C1.80061 90.8333 1.98539 90.4507 2.48853 90.1905L5.13526 89.2041L8.15414 87.6426C8.2808 87.6408 8.34413 87.64 8.34413 87.64L10.0488 87.2366C10.0453 86.9832 10.0435 86.8566 10.0435 86.8566C10.0366 86.35 9.7165 86.101 9.08322 86.1097L6.4391 87.286C6.4391 87.286 6.37577 87.2869 6.24911 87.2886L3.21982 88.0902C2.59002 88.3522 2.20745 88.1675 2.07211 87.5359C1.93851 87.031 2.12415 86.7118 2.62904 86.5782L5.84571 85.584L8.49244 84.5976L10.0019 83.8169C9.99147 83.057 9.98192 82.3604 9.97324 81.7271L8.83855 82.1227L6.19703 83.489L2.98556 84.8631C2.48068 84.9967 2.09811 84.812 1.83786 84.3088C1.70426 83.8039 1.88903 83.4214 2.39218 83.1611L5.41627 81.9796L8.24777 80.6106L9.9472 79.8273C9.93678 79.0673 9.61493 78.6917 8.98166 78.7004L5.96017 80.0719L2.75131 81.6361C2.24816 81.8963 1.86646 81.7749 1.60621 81.2717C1.34596 80.7686 1.4674 80.3869 1.97055 80.1266L5.17941 78.5625L8.2009 77.1909L9.90032 76.4076C9.89164 75.7743 9.88209 75.0777 9.87168 74.3178L8.92437 74.5208L5.71551 76.0849L2.50404 77.459C1.99915 77.5926 1.61659 77.4079 1.35633 76.9047C1.22273 76.3998 1.40751 76.0173 1.91065 75.757L4.93474 74.5755L8.33359 73.0087L10.0356 72.4153C10.0287 71.9087 9.70856 71.6598 9.07529 71.6684L6.42595 72.4648L3.40707 74.0264C2.90393 74.2866 2.52223 74.1652 2.26197 73.662C2.00172 73.1589 2.12316 72.7772 2.62631 72.5169L5.64519 70.9554C5.77185 70.9537 5.83518 70.9528 5.83518 70.9528L8.4819 69.9664L9.99135 69.1857C9.98093 68.4257 9.97051 67.6658 9.9601 66.9059L8.44805 67.4966L5.80393 68.673C5.80393 68.673 5.7406 68.6739 5.61394 68.6756L2.96461 69.472C2.46146 69.7322 2.07976 69.6108 1.81951 69.1076C1.68417 68.4761 1.86895 68.0935 2.37383 67.9599L5.02056 66.9736L10.1266 65.1934C10.118 64.5601 10.1093 63.9269 10.1006 63.2936C10.0989 63.1669 9.78309 63.2346 9.15329 63.4966L6.32179 64.8655L3.11032 66.2397C2.60717 66.4999 2.22461 66.3152 1.96262 65.6854C1.82902 65.1805 2.01379 64.7979 2.51694 64.5377L5.54103 63.3561L8.36993 61.7972C8.36993 61.7972 8.43325 61.7963 8.55991 61.7946L10.0746 61.3938C10.0641 60.6338 10.0546 59.9372 10.0459 59.304L8.72124 59.7022L5.50457 60.6963L2.66525 61.4953C2.16211 61.7556 1.77954 61.5708 1.51755 60.941C1.38395 60.4361 1.56959 60.1169 2.07447 59.9833L8.12786 58.0001L10.0199 57.4042C10.0199 57.4042 10.019 57.3408 10.0173 57.2142C10.0068 56.4542 9.99904 55.8843 9.99383 55.5043L8.66916 55.9025L6.02764 57.2689C5.90099 57.2706 5.83766 57.2715 5.83766 57.2715L2.81096 58.263C2.17943 58.3984 1.79686 58.2136 1.66326 57.7087C1.52792 57.0772 1.7127 56.6946 2.21758 56.561L5.24688 55.7594L8.07838 54.3905L9.96779 53.6045C9.95911 52.9712 9.95129 52.4013 9.94435 51.8947L8.81227 52.4802L5.6008 53.8544L2.38413 54.8486C1.88098 55.1088 1.49841 54.9241 1.23642 54.2943C1.10282 53.7894 1.28846 53.4701 1.79335 53.3365L5.00742 52.1524L8.03151 50.9708L9.9157 49.8049C10.0337 49.1699 10.0883 48.5357 10.0796 47.9024L8.75498 48.3006L5.54091 49.4848L2.7094 50.8537C2.20799 51.2406 1.82716 51.1825 1.56691 50.6794C1.30665 50.1762 1.42723 49.7312 1.92864 49.3443L4.76014 47.9754C4.88506 47.847 4.94752 47.7828 4.94752 47.7828L8.1642 46.7886L10.0562 46.1926C10.0458 45.4327 10.0362 44.7361 10.0276 44.1028L8.13555 44.6988L4.92148 45.883L2.27475 46.8693C1.76987 47.0029 1.3873 46.8181 1.12705 46.315C0.993446 45.8101 1.17822 45.4275 1.68137 45.1673L4.3307 44.3709L7.54217 42.9968L10.1941 42.3904C10.1854 41.7571 10.1767 41.1238 10.1681 40.4905L8.27606 41.0865L5.44455 42.4555L2.60784 43.4444C2.10469 43.7047 1.72299 43.5832 1.46274 43.0801C1.32914 42.5752 1.51391 42.1926 2.01706 41.9324L4.66119 40.756L7.68528 39.5745L10.3346 38.7781C10.3294 38.3981 10.3875 38.0173 10.509 37.6356C10.5038 37.2556 10.4985 36.8757 10.4933 36.4957L8.60654 37.4717L5.95981 38.458L2.75095 40.0222C2.2478 40.2824 1.8661 40.161 1.60585 39.6578C1.34386 39.028 1.4653 38.6463 1.97019 38.5127L5.17905 36.9486L8.01316 35.7696L10.6573 34.5933C10.6486 33.96 10.6391 33.2634 10.6286 32.5035L7.79713 33.8724L4.96042 34.8614L2.31109 35.6578C1.80794 35.918 1.42537 35.7332 1.16338 35.1034C1.02978 34.5986 1.21542 34.2793 1.72031 34.1457L4.55702 33.1568L7.20635 32.3604L10.4152 30.7962C10.4152 30.7962 10.4785 30.7954 10.6052 30.7936C10.6052 30.7936 10.6685 30.7928 10.7952 30.791C10.7882 30.2844 10.7822 29.8411 10.777 29.4612L8.12762 30.2575L5.29091 31.2465L2.64678 32.4229C2.1419 32.5565 1.75933 32.3717 1.49908 31.8685C1.36548 31.3637 1.55025 30.9811 2.0534 30.7208L4.70013 29.7345C4.70013 29.7345 4.76345 29.7336 4.89011 29.7319L7.53684 28.7455L10.7509 27.5613C10.744 27.0547 10.7353 26.4214 10.7249 25.6615L8.27073 26.8353L5.43662 28.0142L2.21994 29.0084C1.7168 29.2686 1.33423 29.0839 1.07224 28.4541C0.938638 27.9492 1.12428 27.6299 1.62916 27.4963L4.84323 26.3122L7.67734 25.1332L10.6988 23.7617C10.6901 23.1284 10.7431 22.3676 10.8576 21.4793L8.20823 22.2757L4.99415 23.4599L2.34742 24.4462C1.84254 24.5798 1.45997 24.395 1.19972 23.8919C1.06438 23.2604 1.24916 22.8778 1.75404 22.7442L4.59075 21.7552L7.61745 20.7636L10.8315 19.5795C10.8211 18.8195 10.8124 18.1863 10.8055 17.6797L8.34612 18.4734L5.6994 19.4598C5.6994 19.4598 5.63607 19.4607 5.50941 19.4624L2.6727 20.4514C2.16782 20.585 1.78525 20.4002 1.525 19.8971C1.3914 19.3922 1.57617 19.0096 2.07932 18.7494L5.10862 17.9478L7.75274 16.7714L10.7794 15.7798C10.7708 15.1466 10.7638 14.6399 10.7586 14.26L8.11187 15.2463L5.09039 16.6179L1.68894 17.9946C1.18579 18.2549 0.80409 18.1334 0.543836 17.6303C0.283582 17.1271 0.468355 16.7446 1.09816 16.4826L4.30702 14.9185L7.52109 13.7343L10.9225 12.3575C10.9156 11.8509 10.7855 11.5994 10.5322 11.6028L7.12811 12.7896C7.00319 12.918 6.8774 12.9831 6.75075 12.9848C6.62409 12.9865 6.37165 13.0533 5.99342 13.1852C5.8685 13.3136 5.80604 13.3778 5.80604 13.3778L2.77935 14.3693C2.2762 14.6296 1.89364 14.4448 1.63165 13.815C1.49805 13.3101 1.68369 12.9909 2.18857 12.8573L5.21266 11.6757L8.61411 10.299L11.633 8.73747C11.7596 8.73573 11.9488 8.6698 12.2003 8.53968C12.4484 8.15624 12.7599 7.77193 13.1346 7.38676C14.5087 5.97446 16.0182 5.1937 17.6629 5.04448C19.306 4.76859 20.9508 4.61937 22.5973 4.5968C25.7602 4.30009 28.8606 4.06758 31.8986 3.89926C35.0632 3.7292 38.2287 3.62247 41.3951 3.57907C42.6616 3.56171 43.9282 3.54435 45.1947 3.52699C46.4613 3.50962 47.7278 3.49226 48.9944 3.4749C48.9944 3.4749 49.0577 3.47403 49.1844 3.4723C49.311 3.47056 49.3743 3.46969 49.3743 3.46969C50.3893 3.58246 51.406 3.82188 52.4245 4.18795C53.4412 4.42737 54.4596 4.79345 55.4798 5.28618C57.397 6.52669 58.8761 8.15323 59.9171 10.1658C61.0848 12.1767 62.1883 14.1251 63.2275 16.011C65.6687 18.5111 67.6718 21.3973 69.2368 24.6694C70.8018 27.9416 72.3659 31.1505 73.9292 34.296C75.6191 37.4398 77.6846 40.2618 80.1258 42.7619C80.1258 42.7619 80.19 42.8244 80.3184 42.9493C80.4485 43.2009 80.5135 43.3266 80.5135 43.3266C81.0323 44.2063 81.6153 45.1484 82.2625 46.1529C82.2607 46.0263 82.3232 45.9621 82.4498 45.9603L85.0913 44.594L88.3028 43.2199L90.7596 42.2361C90.8827 41.9811 91.0051 41.6627 91.1265 41.281L90.1818 41.674L86.9729 43.2381L84.1414 44.607C83.6383 44.8673 83.2566 44.7458 82.9963 44.2427C82.7361 43.7396 82.8575 43.3578 83.3607 43.0976L85.8148 41.9238C85.3082 41.9308 84.989 41.7451 84.8571 41.3669C84.5968 40.8638 84.7183 40.4821 85.2214 40.2218L88.4303 38.6577L91.4518 37.2862L94.2833 35.9172C94.5297 35.4071 94.7769 34.9604 95.025 34.5769L93.8903 34.9725L91.0562 36.1515L88.0321 37.333C87.529 37.5933 87.2106 37.471 87.077 36.9661C86.8167 36.4629 86.9382 36.0812 87.4413 35.821L90.4628 34.4494L92.5422 33.6609L89.7029 34.4599C89.0731 34.7218 88.6905 34.5371 88.5552 33.9055C88.4216 33.4007 88.6072 33.0814 89.1121 32.9478L90.6267 32.547C90.4984 32.4221 90.4333 32.2963 90.4316 32.1697C90.1713 31.6665 90.2928 31.2848 90.7959 31.0246L94.1947 29.4578L97.0289 28.2789L99.8604 26.9099C99.9818 26.5282 100.167 26.209 100.417 25.9522L99.0952 26.5404C99.0952 26.5404 99.0319 26.5413 98.9052 26.543L92.8571 28.9061C92.3539 29.1664 92.0355 29.044 91.9019 28.5392C91.6417 28.036 91.7631 27.6543 92.2663 27.3941L95.0978 26.0251C95.0978 26.0251 95.1611 26.0243 95.2878 26.0225L98.3145 25.0309L101.713 23.4642C101.836 23.2092 101.646 23.1484 101.141 23.282L98.1193 24.6536L94.9078 26.0277C94.4047 26.288 94.023 26.1665 93.7627 25.6634C93.5024 25.1602 93.6239 24.7785 94.127 24.5183L97.3359 22.9542L100.55 21.77L103.384 20.591C103.632 20.2076 103.88 19.8242 104.128 19.4407L102.804 19.8389L99.5948 21.4031L96.9533 22.7694C96.4502 23.0296 96.0685 22.9082 95.8082 22.405C95.548 21.9019 95.6694 21.5202 96.1726 21.2599L99.0015 19.701L102.023 18.3295C102.023 18.3295 102.086 18.3286 102.213 18.3269L105.24 17.3353C105.488 16.9519 105.736 16.5684 105.984 16.185L104.659 16.5832L98.2363 19.3315C97.6065 19.5935 97.2248 19.472 97.0912 18.9671C96.831 18.464 96.9524 18.0823 97.4556 17.822L99.7223 16.8409C99.7206 16.7142 99.6555 16.5884 99.5271 16.4635C99.2669 15.9604 99.3883 15.5787 99.8915 15.3184L102.723 13.9495L105.747 12.7679L108.389 11.4016C108.635 10.8915 108.882 10.4447 109.13 10.0613L106.299 11.4302L103.462 12.4192C102.831 12.5545 102.448 12.3698 102.314 11.8649C102.179 11.2333 102.364 10.8508 102.869 10.7172L105.708 9.91818L108.727 8.35666C108.727 8.35666 108.79 8.35579 108.917 8.35405L110.619 7.76066C111.613 6.35358 112.737 5.19806 113.992 4.29412C115.498 3.26005 117.074 2.73173 118.72 2.70916C120.365 2.55993 122.011 2.47404 123.657 2.45147C123.911 2.448 124.101 2.44539 124.227 2.44366C124.734 2.43671 125.241 2.49309 125.75 2.6128C126.256 2.60586 126.763 2.59891 127.27 2.59197C128.663 2.57287 130.057 2.6171 131.452 2.72466C132.845 2.70556 134.238 2.68646 135.631 2.66737C137.531 2.64133 139.431 2.61528 141.331 2.58924C143.229 2.43655 145.127 2.28385 147.025 2.13116C147.278 2.12769 147.532 2.12421 147.785 2.12074C149.43 1.97151 151.014 2.01314 152.537 2.24562C154.185 2.3497 155.652 3.02634 156.935 4.27552C158.093 5.52644 158.745 6.91097 158.893 8.42909C159.167 9.94548 159.314 11.4636 159.335 12.9835C159.342 13.4901 159.346 13.8067 159.348 13.9334C159.518 17.098 159.625 20.2635 159.668 23.4299C159.712 26.5962 159.818 29.6984 159.986 32.7364C160.165 36.5343 160.217 40.3339 160.142 44.1353C160.066 47.81 159.99 51.5481 159.916 55.3495C159.803 56.3644 159.691 57.4427 159.58 58.5844C159.594 59.5976 159.609 60.6742 159.624 61.8141C159.22 69.2937 159.07 76.8331 159.174 84.4324C159.405 92.0299 159.573 99.6283 159.677 107.228C159.685 107.861 159.694 108.494 159.703 109.127C159.836 109.632 159.908 110.201 159.916 110.835C159.951 113.368 159.986 115.901 160.02 118.434C160.182 120.965 160.28 123.498 160.315 126.031C160.332 127.297 160.349 128.564 160.367 129.83C160.509 130.968 160.589 132.171 160.606 133.437C160.606 133.437 160.544 133.502 160.419 133.63C160.422 133.883 160.424 134.01 160.424 134.01C159.949 136.297 159.085 137.955 157.832 138.986C156.708 140.141 155.007 140.861 152.731 141.146C152.731 141.146 152.604 141.148 152.351 141.151C152.224 141.153 152.161 141.154 152.161 141.154C151.401 141.164 150.577 141.112 149.689 140.998C148.929 141.008 148.168 140.955 147.406 140.839L146.462 141.232L143.815 142.218L140.791 143.4C140.288 143.66 139.906 143.539 139.646 143.036C139.646 143.036 139.645 142.972 139.643 142.846L137.379 144.017C136.876 144.277 136.494 144.156 136.234 143.652C136.232 143.526 136.23 143.399 136.229 143.272L133.202 144.264C132.572 144.526 132.19 144.405 132.057 143.9C131.922 143.268 132.106 142.886 132.611 142.752L135.635 141.57L138.279 140.394C138.026 140.397 137.836 140.4 137.709 140.402L135.823 141.378L132.421 142.755L129.587 143.933C129.084 144.194 128.702 144.072 128.442 143.569C128.44 143.442 128.439 143.379 128.439 143.379L127.117 143.967C126.614 144.228 126.232 144.106 125.972 143.603C125.714 143.227 125.709 142.91 125.959 142.653L122.55 143.46C122.298 143.59 122.045 143.593 121.79 143.47L120.085 143.874C119.582 144.134 119.264 144.012 119.13 143.507C119.129 143.38 119.064 143.318 118.938 143.319L117.238 144.103C116.608 144.365 116.227 144.243 116.093 143.738C115.963 143.487 115.96 143.234 116.083 142.978L113.813 143.77C113.31 144.03 112.929 143.908 112.668 143.405C112.535 142.9 112.719 142.518 113.223 142.258L116.814 140.878L115.299 141.279L112.463 142.268L109.439 143.45C108.935 143.71 108.554 143.588 108.293 143.085L106.021 143.686C105.392 143.948 105.009 143.764 104.874 143.132C104.74 142.627 104.926 142.308 105.431 142.174L108.837 141.178L111.487 140.381L113.938 139.018C113.555 138.769 113.172 138.585 112.791 138.463L111.089 139.057L108.059 139.858L105.23 141.417L102.209 142.789C101.706 143.049 101.324 142.927 101.064 142.424C100.803 141.921 100.925 141.539 101.428 141.279L104.45 139.908L107.278 138.349C107.278 138.349 107.342 138.348 107.468 138.346L111.44 136.962C111.185 136.838 110.929 136.652 110.672 136.402C110.542 136.15 110.285 135.901 109.902 135.653C109.777 135.781 109.714 135.845 109.714 135.845L106.685 136.647L103.278 137.643L100.439 138.442C99.9359 138.703 99.5534 138.518 99.2914 137.888C99.1578 137.383 99.3434 137.064 99.8483 136.93L102.875 135.939L106.092 134.945L109.876 133.753C109.744 133.374 109.611 132.933 109.478 132.428C109.476 132.301 109.474 132.175 109.472 132.048L106.636 133.037L100.218 136.165C99.7147 136.426 99.333 136.304 99.0727 135.801C98.8108 135.171 98.9322 134.789 99.4371 134.656L102.646 133.092L106.045 131.525L109.446 130.148C109.445 130.022 109.442 129.832 109.438 129.578C109.43 128.945 109.424 128.502 109.42 128.248L106.966 129.422L104.325 130.788C104.325 130.788 104.325 130.852 104.327 130.978C104.2 130.98 104.137 130.981 104.137 130.981L101.11 131.973C100.607 132.233 100.225 132.048 99.9628 131.418C99.8292 130.913 100.015 130.594 100.52 130.461L103.544 129.279L106.185 127.913L109.394 126.349C109.507 125.334 109.497 124.637 109.366 124.259L106.526 125.058L103.315 126.432L100.101 127.616C99.5958 127.75 99.2132 127.565 98.953 127.062C98.8194 126.557 99.0041 126.174 99.5073 125.914L102.724 124.92L105.935 123.546L109.529 122.356C109.523 121.85 109.516 121.406 109.511 121.026L106.865 122.013L103.84 123.194L100.442 124.761C99.9384 125.021 99.5567 124.9 99.2965 124.397C99.0362 123.894 99.221 123.511 99.8508 123.249L103.06 121.685L106.271 120.311L109.485 119.127C109.477 118.493 109.468 117.86 109.459 117.227L107 118.021L101.326 119.999C100.821 120.132 100.439 119.947 100.179 119.444C100.043 118.813 100.228 118.43 100.733 118.297L103.76 117.305L106.409 116.509L109.623 115.324C109.62 115.071 109.614 114.691 109.607 114.185C109.601 113.678 109.533 113.362 109.404 113.237L106.573 114.606L103.739 115.785C103.739 115.785 103.676 115.786 103.549 115.788L100.525 116.969C100.02 117.103 99.6373 116.918 99.3771 116.415C99.2435 115.91 99.4282 115.528 99.9314 115.267L102.958 114.276L105.98 112.904L108.624 111.728C108.624 111.728 108.939 111.597 109.568 111.335C109.558 110.575 109.548 109.878 109.54 109.245L106.51 110.047L100.077 112.035C99.574 112.295 99.1923 112.174 98.932 111.671C98.7967 111.039 98.9814 110.657 99.4863 110.523L102.89 109.336L105.917 108.345L109.704 107.343C109.695 106.709 109.686 106.076 109.678 105.443L106.464 106.627L103.442 107.998L100.041 109.375C99.5358 109.509 99.1532 109.324 98.8929 108.821C98.8912 108.694 98.8895 108.568 98.8877 108.441C98.6379 108.698 98.3881 108.954 98.1382 109.211C97.3852 109.728 96.5672 110.12 95.6841 110.385C94.801 110.65 93.8545 110.917 92.8448 111.184C92.0866 111.321 91.3275 111.395 90.5676 111.405C89.8077 111.416 89.0477 111.426 88.2878 111.436C87.4012 111.449 86.7046 111.458 86.198 111.465C85.6914 111.472 84.9323 111.546 83.9208 111.686C83.9208 111.686 83.8575 111.687 83.7308 111.689L80.7015 112.491C80.0717 112.753 79.6892 112.568 79.5538 111.936C79.5538 111.936 79.553 111.873 79.5512 111.746C79.2979 111.75 79.0446 111.753 78.7913 111.757L77.0867 112.16C76.5835 112.42 76.2651 112.298 76.1315 111.793L74.9943 111.999C74.4911 112.259 74.1085 112.074 73.8465 111.444C73.7164 111.193 73.588 111.068 73.4614 111.07L70.6221 111.869C70.1189 112.129 69.8005 112.007 69.6669 111.502L67.7775 112.288C67.2744 112.548 66.8927 112.426 66.6324 111.923C66.3722 111.42 66.4936 111.038 66.9968 110.778L69.8283 109.409C69.9549 109.408 70.0183 109.407 70.0183 109.407L72.1003 108.808C71.9701 108.557 71.84 108.305 71.7099 108.053L69.2531 109.037L66.229 110.219L63.3975 111.588C63.5572 113.992 63.7177 116.46 63.8791 118.992C64.0404 121.523 64.2009 123.991 64.3606 126.396C64.3675 126.902 64.3779 127.662 64.3918 128.676C64.5445 130.574 64.5714 132.537 64.4726 134.565C64.3719 136.467 63.5079 138.125 61.8805 139.541C60.7562 140.697 59.4351 141.348 57.9169 141.496C56.5272 141.768 55.0724 141.915 53.5526 141.935C53.1726 141.941 52.856 141.945 52.6026 141.948C51.8427 141.959 51.0828 141.969 50.3229 141.98L49.0008 142.568L45.9819 144.129L43.1478 145.308C42.6447 145.569 42.263 145.447 42.0027 144.944C41.8708 144.566 41.9298 144.248 42.1797 143.992L39.5329 144.978C39.0298 145.238 38.6481 145.117 38.3878 144.614C38.2542 144.109 38.439 143.726 38.9422 143.466L41.7763 142.287C41.7763 142.287 41.7129 142.288 41.5863 142.289C41.5863 142.289 41.523 142.29 41.3963 142.292L38.7496 143.278L36.2902 144.072L33.2661 145.254C32.763 145.514 32.3813 145.393 32.121 144.889C31.9909 144.638 31.9874 144.385 32.1106 144.13L29.0839 145.121C28.5808 145.381 28.1991 145.26 27.9388 144.757L26.2342 145.16C25.856 145.292 25.5376 145.17 25.2791 144.793ZM64.8105 89.9062C65.3154 89.7726 65.6355 90.0216 65.7708 90.6532C65.901 90.9047 65.8411 91.1589 65.5913 91.4157C65.9799 92.0437 66.3035 92.546 66.562 92.9225C67.0669 92.7889 67.4495 92.9737 67.7097 93.4768C67.7149 93.8568 67.6551 94.111 67.5301 94.2394C67.7904 94.7425 68.114 95.2448 68.5009 95.7462C69.0058 95.6126 69.325 95.7983 69.4586 96.3031C69.5905 96.6814 69.5315 96.9989 69.2816 97.2557C69.5367 97.3788 69.7293 97.5662 69.8594 97.8178C69.8611 97.9444 69.9262 98.0702 70.0546 98.1951C70.183 98.3201 70.3122 98.5083 70.4424 98.7599C70.8206 98.628 71.0765 98.8145 71.2101 99.3194C71.3385 99.4443 71.3411 99.6343 71.2179 99.8894C71.735 100.642 72.1227 101.207 72.3813 101.584C72.7612 101.578 73.0171 101.765 73.149 102.143C73.1507 102.27 73.1533 102.46 73.1568 102.713C73.4153 103.09 73.6088 103.34 73.7372 103.465C73.8673 103.717 73.9974 103.968 74.1276 104.22C74.3843 104.47 74.6411 104.72 74.8979 104.969C75.4028 104.836 75.7854 105.021 76.0456 105.524C76.0473 105.65 76.0499 105.84 76.0534 106.094C76.0534 106.094 76.1176 106.156 76.246 106.281C76.6294 106.529 77.1387 106.712 77.7737 106.83L79.0957 106.242C79.6006 106.108 79.9832 106.293 80.2434 106.796L82.5154 106.195C83.0203 106.062 83.3395 106.247 83.4731 106.752C83.6015 106.877 83.6657 106.939 83.6657 106.939L85.7451 106.151C86.25 106.017 86.6326 106.202 86.8928 106.705C86.8946 106.832 86.8954 106.895 86.8954 106.895L89.1648 106.104C89.6697 105.97 89.9889 106.156 90.1225 106.661C90.2509 106.786 90.3151 106.848 90.3151 106.848C90.4418 106.847 90.5684 106.845 90.6951 106.843L92.3971 106.25C92.6487 106.12 93.0286 106.114 93.537 106.234L95.9911 105.06C96.7406 104.29 97.3618 103.395 97.8545 102.375C98.4739 101.353 99.0308 100.395 99.5253 99.5013C100.639 97.5859 101.753 95.6705 102.867 93.755C103.979 91.7129 105.155 89.7333 106.396 87.8161C106.642 87.306 106.888 86.7959 107.135 86.2858C107.508 85.774 107.818 85.3263 108.067 84.9429C108.191 84.8145 108.316 84.6228 108.439 84.3678C108.433 83.9878 108.494 83.7969 108.621 83.7952C108.619 83.6685 108.681 83.541 108.806 83.4126C108.924 82.7776 109.169 82.2042 109.542 81.6924C109.913 81.0539 110.544 80.8552 111.434 81.0964C112.576 81.2074 113.151 81.5796 113.16 82.2128C113.295 82.8444 113.304 83.541 113.188 84.3027C113.072 85.0643 113.016 85.5718 113.019 85.8251C113.161 86.9633 113.24 88.1023 113.256 89.2422C113.396 90.2537 113.475 91.3294 113.49 92.4693C113.919 96.0104 114.158 99.6175 114.209 103.29C114.259 106.963 114.246 110.637 114.17 114.312C114.057 115.327 114.008 116.404 114.024 117.544C114.038 118.558 114.053 119.634 114.068 120.774C114.086 122.041 114.04 123.308 113.93 124.576C113.946 125.716 113.962 126.919 113.98 128.186C113.983 128.439 113.988 128.819 113.995 129.326C113.883 130.341 113.893 131.101 114.027 131.606C114.299 132.995 114.692 133.94 115.206 134.44C115.717 134.813 116.673 135.18 118.071 135.541C118.706 135.659 119.403 135.712 120.163 135.702C120.923 135.691 121.683 135.681 122.443 135.671C122.823 135.665 123.203 135.66 123.583 135.655C123.961 135.523 124.34 135.455 124.72 135.449C126.495 135.552 128.207 135.655 129.855 135.759C131.628 135.735 133.401 135.71 135.175 135.686C136.823 135.79 138.471 135.894 140.119 135.998C141.894 136.101 143.669 136.203 145.444 136.305C150.253 135.986 153.162 135.63 154.17 135.236C155.176 134.715 155.801 134.073 156.044 133.31C156.027 132.043 155.947 130.841 155.805 129.703C155.789 128.563 155.773 127.423 155.758 126.283L155.755 126.093C155.722 123.687 155.625 121.218 155.463 118.686C155.429 116.153 155.394 113.62 155.359 111.087C155.351 110.454 155.279 109.821 155.143 109.19C155.135 108.557 155.127 107.987 155.12 107.48C155.016 99.8808 154.847 92.2191 154.615 84.4949C154.509 76.7689 154.657 69.1028 155.06 61.4966C155.046 60.4834 155.032 59.4701 155.018 58.4569C155.129 57.3153 155.241 56.237 155.354 55.222C155.43 51.5473 155.506 47.8725 155.583 44.1978C155.657 40.3964 155.606 36.6601 155.429 32.9889C155.259 29.8242 155.152 26.6587 155.109 23.4924C155.065 20.326 154.959 17.2238 154.791 14.1858C154.786 13.8059 154.843 13.3617 154.963 12.8534C154.951 11.9668 154.874 11.0177 154.734 10.0062C154.72 8.993 154.392 8.17408 153.75 7.54949C153.108 6.9249 152.281 6.61955 151.267 6.63344C150.252 6.52067 149.302 6.53369 148.418 6.6725C147.911 6.67944 147.531 6.68465 147.278 6.68812C145.38 6.84082 143.418 6.99438 141.393 7.14881C139.494 7.17485 137.594 7.2009 135.694 7.22694C134.301 7.24603 132.844 7.266 131.324 7.28683C129.929 7.17928 128.535 7.13505 127.142 7.15414C126.636 7.16109 126.129 7.16803 125.622 7.17498C125.114 7.05527 124.606 6.99889 124.1 7.00583C123.973 7.00757 123.657 7.01191 123.15 7.01885C122.008 6.90782 120.868 6.92345 119.73 7.06573C118.59 7.08135 117.518 7.41274 116.514 8.05991C114.883 9.22237 113.638 10.8229 112.779 12.8615C111.918 14.7735 111.056 16.5588 110.192 18.2175C108.334 21.2833 106.477 24.4123 104.62 27.6048C102.891 30.7954 101.032 33.8612 99.0459 36.802C97.559 39.2293 96.1363 41.719 94.7778 44.2712C93.4176 46.6968 91.9941 49.1232 90.5072 51.5504C89.8878 52.5724 89.2684 53.5943 88.649 54.6162C88.1563 55.6364 87.6003 56.6574 86.9809 57.6793C86.8542 57.6811 86.666 57.8103 86.4161 58.0671C86.0379 58.199 85.7855 58.2658 85.6588 58.2675C84.8989 58.2779 84.3263 58.0958 83.9412 57.721C83.6826 57.3445 83.4233 56.9047 83.163 56.4016C83.163 56.4016 83.0997 56.4024 82.973 56.4042C82.8429 56.1526 82.7752 55.8368 82.77 55.4569C82.6399 55.2053 82.5098 54.9537 82.3796 54.7021C81.4722 53.1944 80.5023 51.7509 79.47 50.3716C78.5626 48.8639 77.6552 47.3562 76.7478 45.8485C74.1799 43.3501 72.1135 40.4648 70.5485 37.1926C68.9835 33.9205 67.3561 30.7125 65.6662 27.5687C64.1012 24.2965 62.0981 21.4103 59.6569 18.9102C59.6569 18.9102 59.6561 18.8469 59.6543 18.7202C59.5277 18.722 59.4643 18.7228 59.4643 18.7228C58.5552 17.0885 57.6443 15.3275 56.7317 13.4398C55.8191 11.5521 54.5959 10.1121 53.0621 9.11967C52.4236 8.74839 51.7236 8.50463 50.9619 8.38839C50.2002 8.27215 49.5019 8.15505 48.8669 8.03708C47.6003 8.05444 46.3338 8.0718 45.0672 8.08916C43.9274 8.10478 42.7241 8.12128 41.4576 8.13864C38.2912 8.18204 35.189 8.2879 32.1511 8.45622C29.1131 8.62454 26.0118 8.79373 22.8471 8.96378C22.5956 9.09392 22.2165 9.16246 21.7099 9.1694C20.8233 9.18155 19.8742 9.2579 18.8627 9.39844C17.8495 9.41233 17.0314 9.80358 16.4086 10.5722C15.784 11.2141 15.4144 11.9793 15.2999 12.8676C15.3121 13.7542 15.3251 14.7041 15.339 15.7173C15.346 16.224 15.3512 16.6039 15.3546 16.8572C15.2749 20.2786 15.2593 23.7625 15.3079 27.3088C15.3565 30.8552 15.2776 34.3399 15.0711 37.7631C15.0746 38.0164 15.0148 38.2706 14.8916 38.5256C14.9037 39.4122 14.8526 40.2996 14.7381 41.188C14.8647 41.1862 14.9931 41.3111 15.1232 41.5627C15.2551 41.9409 15.1328 42.2593 14.7563 42.5178C14.7667 43.2778 14.7138 44.0386 14.5975 44.8002C14.8509 44.7968 15.0426 44.9208 15.1727 45.1724C15.3063 45.6773 15.1215 46.0598 14.6184 46.3201C14.6271 46.9534 14.6366 47.65 14.647 48.4099C14.9003 48.4064 15.0929 48.5938 15.2248 48.972C15.3584 49.4769 15.1103 49.8603 14.4805 50.1223C14.4892 50.7556 14.4978 51.3889 14.5065 52.0222C14.8882 52.1436 15.145 52.3934 15.2769 52.7717C15.4105 53.2765 15.1615 53.5967 14.53 53.732C14.5386 54.3653 14.5482 55.0619 14.5586 55.8218C14.9386 55.8166 15.1945 56.0031 15.3263 56.3813C15.4599 56.8862 15.2118 57.2696 14.582 57.5316C14.5925 58.2916 14.602 58.9882 14.6107 59.6214C14.864 59.618 15.0557 59.742 15.1858 59.9936C15.4461 60.4967 15.2622 60.9426 14.6341 61.3313C14.6428 61.9646 14.6515 62.5978 14.6602 63.2311C14.9135 63.2276 15.1694 63.4141 15.4279 63.7906C15.5615 64.2955 15.3143 64.7423 14.6862 65.1309C14.5665 65.6393 14.5119 66.2734 14.5223 67.0333C14.9022 67.0281 15.1573 67.1513 15.2874 67.4029C15.5477 67.906 15.3004 68.3528 14.5457 68.7432C14.5544 69.3765 14.5631 70.0097 14.5717 70.643C14.9517 70.6378 15.271 70.8234 15.5295 71.1999C15.6631 71.7048 15.3525 72.1524 14.5978 72.5428C14.4816 73.3045 14.4269 73.9386 14.4339 74.4453C14.9387 74.3117 15.3213 74.4964 15.5816 74.9996C15.7152 75.5045 15.3413 75.953 14.4599 76.3451C14.4703 77.105 14.479 77.7383 14.4859 78.2449C15.1157 77.9829 15.4983 78.1677 15.6336 78.7992C15.7672 79.3041 15.3925 79.6893 14.5094 79.9547C14.5215 80.8413 14.5302 81.4746 14.5354 81.8546C15.0403 81.721 15.4229 81.9057 15.6831 82.4089C15.8167 82.9138 15.4428 83.3623 14.5615 83.7544C14.5701 84.3877 14.5788 85.0209 14.5875 85.6542C15.0906 85.394 15.4732 85.5787 15.7352 86.2085C15.8688 86.7134 15.494 87.0986 14.6109 87.364C14.6196 87.9973 14.6916 88.6297 14.827 89.2613C15.2052 89.1294 15.5244 89.315 15.7847 89.8182C15.9183 90.3231 15.6077 90.7707 14.853 91.1611C14.8617 91.7944 14.8704 92.4276 14.879 93.0609C15.3839 92.9273 15.7032 93.1129 15.8368 93.6178C15.9704 94.1227 15.7223 94.5062 15.0925 94.7681C15.1011 95.4014 15.1098 96.0347 15.1185 96.668C15.5002 96.7894 15.7561 96.9759 15.8862 97.2275C16.0216 97.859 15.8368 98.2416 15.3319 98.3752C15.3423 99.1351 15.3519 99.8317 15.3606 100.465C15.6156 100.588 15.8082 100.776 15.9383 101.027C16.0719 101.532 15.9496 101.85 15.5714 101.982C15.5835 102.869 15.6581 103.691 15.7952 104.449C15.797 104.576 15.8612 104.639 15.9878 104.637C16.1197 105.015 16.0598 105.269 15.8082 105.399C15.9523 106.664 16.0954 107.866 16.2377 109.004C16.5344 112.167 16.7678 115.33 16.9378 118.495C17.2328 121.531 17.5278 124.568 17.8228 127.604C17.9564 128.109 18.0258 128.551 18.031 128.931C18.0362 129.311 18.0423 129.754 18.0492 130.261C18.0596 131.021 18.0709 131.844 18.0831 132.731C18.0935 133.491 18.2305 134.249 18.4943 135.005C18.7597 135.888 19.4078 136.956 20.4384 138.209C22.7164 138.051 24.932 137.957 27.0851 137.928C29.2383 137.898 31.4547 137.868 33.7345 137.837C36.141 137.804 38.6107 137.77 41.1438 137.735C43.6769 137.7 46.21 137.666 48.7431 137.631C50.0079 137.487 51.2736 137.406 52.5401 137.389C52.7935 137.385 53.1734 137.38 53.68 137.373C54.5684 137.488 55.4549 137.476 56.3398 137.337C57.3513 137.196 58.1702 136.868 58.7965 136.353C59.671 135.454 60.0986 134.308 60.0795 132.915C60.0587 131.395 59.9763 130.003 59.8323 128.738C59.8184 127.725 59.8088 127.028 59.8036 126.648C59.4861 121.966 59.1677 117.219 58.8484 112.41C58.6557 107.599 58.464 102.851 58.2731 98.1666C58.2609 97.28 58.2488 96.3935 58.2366 95.5069C58.2227 94.4936 58.2097 93.5437 58.1976 92.6571C58.1854 91.7706 58.1741 90.9473 58.1637 90.1874C58.1533 89.4274 58.142 88.6042 58.1299 87.7176C58.1299 87.7176 58.129 87.6543 58.1273 87.5276C57.749 87.6595 57.4307 87.5372 57.1721 87.1607C56.9119 86.6575 57.0958 86.2116 57.7239 85.823C57.5885 85.1915 57.5174 84.6224 57.5104 84.1158C57.6284 83.4807 58.1281 82.9672 59.0095 82.5751C60.0192 82.3079 60.7176 82.425 61.1045 82.9264C61.4897 83.3011 61.7499 83.8043 61.8852 84.4358C61.887 84.5625 61.8878 84.6258 61.8878 84.6258C62.0162 84.7507 62.0822 84.9398 62.0856 85.1931C62.3337 84.8097 62.5298 85.2504 62.6738 86.5152C62.8022 86.6401 62.9315 86.8284 63.0616 87.0799C63.4398 86.9481 63.6957 87.1346 63.8293 87.6395C64.0861 87.8893 64.0896 88.1426 63.8397 88.3994C64.2301 89.1541 64.5537 89.6564 64.8105 89.9062ZM96.5162 32.4663C96.6394 32.2112 96.4485 32.1505 95.9436 32.2841L93.4895 33.4579L96.5162 32.4663ZM92.6125 38.7904C92.7374 38.662 92.6108 38.6637 92.2325 38.7956L88.4563 40.5575L89.591 40.1619L92.6125 38.7904ZM87.418 47.9824C87.6644 47.4724 87.8492 47.0898 87.9723 46.8347L86.6477 47.2329L83.621 48.2245C83.7511 48.4761 83.8812 48.7277 84.0114 48.9792L86.2833 48.378L87.418 47.9824ZM107.632 94.8298C107.259 95.3416 106.886 95.8534 106.513 96.3653C106.267 96.8754 106.084 97.3846 105.964 97.8929L108.605 96.5266C108.605 96.5266 108.604 96.4633 108.603 96.3366C108.729 96.3349 108.982 96.2681 109.36 96.1362C109.225 95.5047 109.153 94.8723 109.144 94.239L107.632 94.8298ZM64.1573 97.7059C63.8988 97.3294 63.6412 97.0163 63.3844 96.7664C63.2525 96.3882 63.0582 96.0742 62.8014 95.8243C62.8118 96.5843 62.8223 97.3442 62.8327 98.1041C62.8327 98.1041 62.8335 98.1675 62.8353 98.2941L64.1573 97.7059ZM104.475 100.194C104.104 100.832 103.794 101.343 103.546 101.726C103.05 102.493 102.804 103.003 102.807 103.257L108.47 100.519L109.605 100.123C109.464 99.1118 109.391 98.416 109.386 98.036L106.555 99.405L104.475 100.194ZM66.0936 100.34C65.58 99.84 65.1324 99.5294 64.7507 99.408L62.8613 100.194C62.9949 100.699 63.0652 101.205 63.0721 101.711L65.1489 100.733L66.0936 100.34ZM67.8425 103.166C67.5823 102.663 67.3229 102.223 67.0644 101.846L63.0982 103.611C63.1051 104.118 63.1129 104.688 63.1216 105.321L65.5784 104.337L67.8425 103.166ZM101.131 105.75C100.635 106.517 100.137 107.157 99.6372 107.671L102.661 106.489L105.68 104.927C105.807 104.926 105.87 104.925 105.87 104.925L109.654 103.733C109.644 102.973 109.509 102.405 109.251 102.028L103.588 104.766C103.588 104.766 103.589 104.829 103.59 104.956L101.131 105.75ZM70.5518 106.739C70.4216 106.488 70.2924 106.299 70.164 106.174C70.164 106.174 70.1006 106.175 69.974 106.177C69.9723 106.05 69.9714 105.987 69.9714 105.987C69.5845 105.486 69.2609 104.983 69.0006 104.48L66.1691 105.849L63.145 107.031C63.2839 107.916 63.3593 108.801 63.3715 109.688L65.4483 108.709L68.6597 107.335L70.5518 106.739ZM16.0974 140.359C15.969 140.234 15.8398 140.045 15.7096 139.794L14.1976 140.385L11.3661 141.754L9.28931 142.732L10.9887 141.949C11.1154 141.947 11.1787 141.946 11.1787 141.946L14.3954 140.952L16.0974 140.359Z" fill="url(#paint0_linear_352_4)"/>
<path d="M228.884 117.87C228.908 119.643 228.932 121.416 228.957 123.19C228.981 124.963 228.942 126.737 228.84 128.512C228.841 128.638 228.845 128.892 228.85 129.272C228.873 130.918 228.769 132.566 228.538 134.216C228.305 135.74 227.564 137.143 226.315 138.427C224.816 139.968 223.054 140.815 221.03 140.97C219.005 141.124 216.978 141.152 214.95 141.053L212.306 142.23L209.475 143.599C208.971 143.859 208.59 143.737 208.329 143.234C208.069 142.731 208.191 142.349 208.694 142.089L211.335 140.723C211.209 140.724 211.082 140.726 210.955 140.728L208.311 141.904L205.48 143.273C204.977 143.533 204.595 143.412 204.335 142.909C204.074 142.406 204.196 142.024 204.699 141.764L207.151 140.4C207.151 140.4 207.024 140.402 206.771 140.405L204.319 141.769L201.488 143.138C200.984 143.398 200.603 143.277 200.342 142.774C200.212 142.522 200.209 142.269 200.332 142.014L198.065 142.995C197.562 143.255 197.18 143.134 196.92 142.63C196.787 142.126 196.971 141.743 197.474 141.483L200.306 140.114C199.926 140.119 199.609 140.123 199.356 140.127L196.902 141.301L193.69 142.675C193.187 142.935 192.806 142.814 192.545 142.31C192.544 142.184 192.479 142.121 192.353 142.123L190.463 142.909C189.96 143.169 189.579 143.048 189.318 142.545C189.317 142.418 189.316 142.355 189.316 142.355L186.669 143.341C186.039 143.603 185.657 143.482 185.524 142.977C185.264 142.474 185.385 142.092 185.888 141.832L187.968 141.043L185.128 141.842L182.487 143.208C181.984 143.469 181.602 143.347 181.342 142.844C181.342 142.844 181.341 142.781 181.339 142.654L178.502 143.643C177.999 143.903 177.617 143.782 177.357 143.279C177.225 142.9 177.284 142.583 177.534 142.326L174.697 143.315C174.068 143.577 173.686 143.456 173.552 142.951C173.551 142.824 173.549 142.698 173.547 142.571L172.038 143.352C171.786 143.482 171.533 143.485 171.278 143.362C170.775 143.622 170.393 143.501 170.133 142.998C169.999 142.493 170.184 142.11 170.687 141.85L174.088 140.473C174.088 140.473 174.088 140.41 174.086 140.283L175.978 139.687L177.3 139.099L178.432 138.514C178.304 138.389 178.111 138.201 177.854 137.951C177.728 137.953 177.411 137.957 176.904 137.964L174.265 139.521L171.239 140.512L168.215 141.694C167.711 141.954 167.33 141.833 167.07 141.329C166.809 140.826 166.931 140.445 167.434 140.184L170.645 138.81C170.772 138.809 170.835 138.808 170.835 138.808L173.485 138.011L176.124 136.455C176.124 136.455 176.187 136.454 176.314 136.452C176.314 136.452 176.439 136.387 176.691 136.257C176.427 135.501 175.977 135 175.34 134.756L172.131 136.32L168.917 137.504L165.706 138.878C165.203 139.138 164.821 139.017 164.561 138.514C164.3 138.01 164.422 137.629 164.925 137.369L168.134 135.804C168.261 135.803 168.324 135.802 168.324 135.802L171.541 134.808L174.559 133.246C174.686 133.244 175.001 133.113 175.504 132.853C175.371 132.348 175.299 131.779 175.291 131.146C175.291 131.146 175.227 131.147 175.101 131.148L171.884 132.143L168.673 133.517L165.271 134.894C164.766 135.027 164.384 134.842 164.123 134.339C163.99 133.834 164.175 133.452 164.678 133.192L167.892 132.007L171.291 130.441L175.075 129.249C175.069 128.869 175.125 128.298 175.241 127.536C175.239 127.41 175.239 127.346 175.239 127.346C175.112 127.348 175.049 127.349 175.049 127.349L172.022 128.34L168.808 129.525L165.784 130.706C165.281 130.966 164.899 130.845 164.639 130.342C164.378 129.839 164.563 129.456 165.193 129.194L168.025 127.825C168.151 127.823 168.214 127.823 168.214 127.823L171.429 126.638L175.213 125.446C175.209 125.193 175.207 125.003 175.205 124.876C175.194 124.117 175.187 123.547 175.181 123.167L172.35 124.536L169.706 125.712L166.684 127.083C166.179 127.217 165.797 127.032 165.537 126.529C165.276 126.026 165.461 125.643 166.091 125.381L168.925 124.202L171.569 123.026L174.401 121.657C174.401 121.657 174.4 121.594 174.398 121.467C174.525 121.465 174.777 121.399 175.155 121.267C175.143 120.38 175.071 119.748 174.939 119.37L171.723 120.364L168.699 121.545L165.864 122.724C165.361 122.985 164.98 122.863 164.719 122.36C164.584 121.728 164.769 121.346 165.274 121.212L167.918 120.036L171.129 118.662L174.916 117.66C174.909 117.153 174.903 116.71 174.898 116.33L172.061 117.319L169.229 118.688C169.229 118.688 169.166 118.689 169.039 118.69L166.013 119.682C165.381 119.817 164.998 119.569 164.862 118.938C164.729 118.433 164.914 118.114 165.419 117.98L168.446 116.988L171.47 115.807L175.062 114.427C175.051 113.668 175.041 112.908 175.03 112.148L172.381 112.944L169.542 113.743L166.143 115.31C165.64 115.57 165.258 115.449 164.998 114.945C164.736 114.316 164.92 113.933 165.552 113.798L168.761 112.234C168.888 112.232 168.951 112.231 168.951 112.231L171.788 111.242L175.004 110.248C174.999 109.868 174.994 109.488 174.989 109.108L172.534 110.282L169.706 111.841L166.682 113.022C166.178 113.282 165.797 113.161 165.536 112.658C165.276 112.155 165.461 111.772 166.091 111.51L171.754 108.772L174.963 107.208C174.954 106.575 174.944 105.878 174.934 105.118L172.477 106.102L169.076 107.479L166.429 108.465C165.924 108.599 165.542 108.414 165.281 107.911C165.148 107.406 165.332 107.023 165.836 106.763L168.675 105.964L171.886 104.59L174.908 103.218C174.906 103.092 174.904 102.965 174.903 102.839C175.028 102.71 175.088 102.519 175.085 102.266C175.081 102.013 175.078 101.759 175.074 101.506L171.863 102.88L168.649 104.064L165.62 104.866C164.988 105.001 164.606 104.817 164.472 104.312C164.338 103.807 164.524 103.488 165.029 103.354L168.245 102.36L171.272 101.368L175.048 99.6062C175.041 99.0996 174.972 98.6572 174.84 98.279C174.835 97.899 174.766 97.5199 174.635 97.1417L171.611 98.3232L168.399 99.6974L165.378 101.069C164.873 101.203 164.49 101.018 164.23 100.515C163.97 100.011 164.154 99.6289 164.784 99.3669L167.618 98.1879L171.02 96.8112L174.041 95.4396C174.041 95.4396 174.105 95.4388 174.231 95.437C174.231 95.437 174.484 95.3702 174.989 95.2366C174.985 94.9833 174.982 94.73 174.978 94.4767C174.973 94.0967 174.969 93.7801 174.965 93.5268L172.131 94.7057L169.104 95.6973L166.268 96.6863C165.763 96.8199 165.38 96.6351 165.12 96.132C164.986 95.6271 165.171 95.2445 165.674 94.9843L168.703 94.1827L171.538 93.0037L174.562 91.8222C174.688 91.8204 174.814 91.7554 174.939 91.627C174.804 90.9954 174.733 90.4264 174.726 89.9197L172.274 91.2835L169.255 92.845C169.129 92.8467 169.065 92.8476 169.065 92.8476L166.039 93.8392C165.407 93.9745 165.024 93.7264 164.888 93.0949C164.755 92.59 164.94 92.2707 165.445 92.1371L168.472 91.1456L171.493 89.774L174.322 88.2151C174.322 88.2151 174.448 88.15 174.7 88.0199C174.7 88.0199 174.699 87.9566 174.697 87.8299C174.69 87.3233 174.682 86.7534 174.674 86.1201L168.625 88.4832L165.796 90.0421C165.293 90.3024 164.912 90.1809 164.651 89.6778C164.391 89.1747 164.513 88.7929 165.016 88.5327L167.845 86.9738L171.056 85.5996L174.84 84.4077C174.833 83.901 174.825 83.3311 174.817 82.6978L171.795 84.0694L169.156 85.6257L166.132 86.8072C165.629 87.0675 165.247 86.946 164.987 86.4429C164.727 85.9397 164.912 85.5572 165.541 85.2952L168.373 83.9262L171.014 82.5599C171.141 82.5582 171.204 82.5573 171.204 82.5573L174.791 80.798C174.78 80.0381 174.771 79.3415 174.762 78.7082L172.118 79.8845L169.289 81.4435L165.887 82.8202C165.383 82.9538 165 82.769 164.74 82.2659C164.606 81.761 164.791 81.3784 165.294 81.1182L168.508 79.934L171.337 78.3751L174.171 77.1961C174.171 77.1961 174.17 77.1328 174.169 77.0062C174.169 77.0062 174.358 76.9402 174.736 76.8084C174.725 76.0484 174.718 75.4785 174.712 75.0985L171.694 76.66L168.862 78.029C168.864 78.1556 168.865 78.219 168.865 78.219L166.028 79.2079C165.525 79.4682 165.143 79.3467 164.883 78.8436C164.748 78.2121 164.932 77.8295 165.437 77.6959L168.081 76.5195L170.913 75.1506L173.932 73.5891C173.932 73.5891 174.183 73.459 174.686 73.1987C174.678 72.5654 174.669 71.9322 174.66 71.2989L172.016 72.4752L168.99 73.4668L165.778 74.841C165.273 74.9746 164.891 74.7898 164.63 74.2866C164.497 73.7818 164.682 73.3992 165.185 73.1389L168.399 71.9548C168.399 71.9548 168.461 71.8906 168.586 71.7622L171.425 70.9632L174.067 69.5969C174.067 69.5969 174.256 69.5309 174.634 69.3991C174.634 69.3991 174.633 69.3357 174.632 69.2091C174.623 68.5758 174.554 68.1334 174.424 67.8818L171.405 69.4433L168.375 70.2449L165.731 71.4213C165.228 71.6815 164.846 71.4968 164.584 70.867C164.45 70.3621 164.636 70.0428 165.14 69.9092L167.785 68.7329C167.785 68.7329 167.848 68.732 167.975 68.7303L170.811 67.7413L174.397 65.982C174.384 64.9687 174.373 64.2088 174.366 63.7022L171.155 65.0763L168.513 66.4427L165.112 67.8194C164.609 68.0797 164.227 67.9582 163.967 67.4551C163.706 66.9519 163.891 66.5694 164.521 66.3074L167.732 64.9332L170.374 63.5669L173.583 62.0028C173.71 62.001 173.962 61.9342 174.34 61.8024C174.335 61.4224 174.329 60.9791 174.322 60.4725L171.295 61.4641L168.651 62.6404C168.524 62.6422 168.461 62.643 168.461 62.643L165.814 63.6294C165.31 63.763 164.927 63.5782 164.667 63.0751C164.533 62.5702 164.718 62.1876 165.221 61.9274L167.87 61.131L170.512 59.7647C170.639 59.7629 170.702 59.7621 170.702 59.7621L174.109 58.7653C174.096 57.8787 174.086 57.1188 174.077 56.4855L171.998 57.2741L169.356 58.6404C169.356 58.6404 169.357 58.7037 169.359 58.8304C169.232 58.8321 169.169 58.833 169.169 58.833L166.33 59.632C165.827 59.8922 165.444 59.7074 165.182 59.0776C165.048 58.5728 165.234 58.2535 165.739 58.1199L168.576 57.1309L171.217 55.7646C171.217 55.7646 171.28 55.7637 171.407 55.762L174.051 54.5857C174.043 53.9524 174.034 53.3191 174.025 52.6858L171.378 53.6722L168.542 54.6612L165.515 55.6528C164.884 55.7881 164.501 55.6033 164.367 55.0984C164.232 54.4669 164.417 54.0843 164.922 53.9507L168.141 53.1465L170.788 52.1602L173.432 50.9838C173.558 50.9821 173.748 50.9795 174.002 50.976C173.993 50.3427 173.984 49.7095 173.976 49.0762L171.896 49.8648L169.057 50.6637L166.038 52.2253C165.535 52.4855 165.153 52.3641 164.893 51.8609C164.633 51.3578 164.754 50.9761 165.257 50.7158L168.276 49.1543C168.403 49.1526 168.466 49.1517 168.466 49.1517L171.303 48.1627L173.95 47.1764C173.941 46.5431 173.931 45.8465 173.921 45.0866L171.272 45.8829L168.055 46.8771L164.844 48.2513C164.339 48.3849 163.956 48.2001 163.696 47.6969C163.562 47.1921 163.747 46.8095 164.25 46.5492L167.464 45.3651C167.464 45.3651 167.527 45.3009 167.652 45.1725L170.681 44.3709L173.898 43.3767C174.023 43.2483 174.085 43.1841 174.085 43.1841C174.083 43.0575 174.082 42.9308 174.08 42.8042C174.073 42.2975 174.067 41.8543 174.062 41.4743L171.415 42.4607L168.581 43.6396L165.369 45.0138C164.866 45.274 164.484 45.0892 164.222 44.4594C164.088 43.9546 164.274 43.6353 164.778 43.5017L170.821 40.7586L174.038 39.7645C174.028 39.0045 174.019 38.3713 174.012 37.8646L170.985 38.8562L167.769 39.8504L164.739 40.652C164.11 40.914 163.727 40.7292 163.592 40.0977C163.458 39.5928 163.644 39.2735 164.149 39.1399L167.365 38.1458L170.395 37.3442L173.986 35.9648C173.979 35.4582 174.035 34.8874 174.153 34.2524L171.131 35.6239L168.104 36.6155L165.086 38.177C164.582 38.4373 164.201 38.3158 163.94 37.8127C163.68 37.3095 163.802 36.9278 164.305 36.6676L167.324 35.106C167.45 35.1043 167.514 35.1034 167.514 35.1034L170.538 33.9219L174.127 32.3525C174.118 31.7193 174.109 31.086 174.1 30.4527L170.702 32.0195L167.865 33.0084L164.838 34C164.335 34.2603 163.953 34.0755 163.691 33.4457C163.557 32.9408 163.743 32.6216 164.247 32.4879L167.462 31.3038L170.111 30.5074L174.077 28.7429C174.068 28.1096 174.06 27.4763 174.051 26.8431L170.65 28.2198L167.438 29.594L164.417 30.9655C163.912 31.0991 163.529 30.9143 163.269 30.4112C163.009 29.908 163.193 29.5255 163.823 29.2635L166.657 28.0845L170.059 26.7078L174.025 24.9432C174.018 24.4366 174.011 23.93 174.004 23.4234L167.961 26.1665C167.836 26.2949 167.773 26.2957 167.771 26.1691L164.747 27.3506C164.244 27.6109 163.861 27.4261 163.599 26.7963C163.466 26.2914 163.651 25.9722 164.156 25.8386L167.18 24.657L170.202 23.2855L173.788 21.5262C173.781 21.0195 173.773 20.4496 173.765 19.8163L171.121 20.9927L168.292 22.5516L165.46 23.9205C164.957 24.1808 164.575 24.0593 164.315 23.5562C164.057 23.1797 164.178 22.798 164.679 22.4111L167.511 21.0421L170.34 19.4832L173.739 17.9165C173.732 17.4099 173.726 16.9666 173.72 16.5866C173.715 16.2067 173.709 15.7634 173.702 15.2568L170.865 16.2457L168.219 17.2321C168.219 17.2321 168.155 17.233 168.029 17.2347L165.192 18.2237C164.687 18.3573 164.305 18.1725 164.044 17.6694C163.911 17.1645 164.096 16.7819 164.599 16.5216L167.628 15.72L170.272 14.5437L173.679 13.5469C173.674 13.1669 173.669 12.8503 173.666 12.597C173.662 12.3437 173.658 12.0271 173.653 11.6471L170.824 13.206L164.39 15.1944C163.887 15.4546 163.506 15.3332 163.245 14.83C163.11 14.1985 163.295 13.8159 163.8 13.6823L167.204 12.4956L170.233 11.694L172.872 10.1376C172.999 10.1359 173.313 10.0049 173.817 9.74467C173.938 9.36296 174.06 8.98126 174.181 8.59956L170.03 10.7467L167.199 12.1156C166.695 12.3758 166.314 12.2544 166.053 11.7513C165.793 11.2481 165.915 10.8664 166.418 10.6062L168.307 9.82019C168.302 9.44022 168.425 9.18517 168.677 9.05505L171.886 7.49092L173.398 6.90013L174.72 6.31197C174.846 6.31023 175.099 6.24343 175.477 6.11157C175.6 5.85652 175.724 5.6648 175.849 5.53641C177.1 4.37916 178.42 3.66433 179.81 3.39192C181.327 3.11778 182.844 2.90696 184.362 2.75947C184.742 2.75427 185.058 2.74993 185.312 2.74645C188.476 2.5764 191.641 2.40634 194.806 2.23627C197.97 2.06622 201.134 1.83284 204.297 1.53613C209.103 0.963536 214.039 0.642518 219.105 0.573074C224.296 0.37524 229.3 0.369991 234.116 0.557325C238.681 0.874792 243.816 1.18444 249.521 1.48628C255.224 1.66147 260.116 2.79785 264.199 4.89543C268.666 7.36776 273.261 9.90168 277.984 12.4972C282.834 15.091 287.12 18.1992 290.843 21.8218C293.671 24.8233 295.686 28.5961 296.889 33.14C298.216 37.5556 299.034 41.7881 299.343 45.8376C299.635 48.6205 299.615 51.7877 299.283 55.3393C299.079 58.8891 298.492 62.3175 297.524 65.6244C296.556 68.9313 295.2 71.6735 293.457 73.8509C291.968 76.1515 290.288 78.3281 288.416 80.3806C286.67 82.4314 284.796 84.3572 282.794 86.1582C282.418 86.4167 282.041 86.6752 281.665 86.9337C282.052 87.4352 282.374 87.8741 282.633 88.2506C284.057 90.5113 285.418 92.7728 286.716 95.0353C289.426 98.6718 291.571 102.633 293.15 106.918C294.729 111.204 296.872 115.101 299.581 118.611C299.581 118.611 299.645 118.674 299.773 118.799C299.775 118.925 299.776 118.989 299.776 118.989C300.296 119.995 300.817 121.001 301.337 122.007C301.984 123.012 302.568 124.017 303.089 125.024C303.215 125.022 303.279 125.021 303.279 125.021C304.049 125.771 304.885 126.709 305.788 127.837C306.688 128.838 306.954 129.784 306.587 130.676C306.344 131.44 306.035 132.014 305.66 132.399C305.546 133.287 305.049 133.991 304.169 134.51C303.419 135.28 302.733 136.05 302.11 136.818C301.488 137.587 300.673 138.231 299.667 138.752C299.037 139.014 298.405 139.149 297.772 139.158C297.267 139.291 296.697 139.299 296.062 139.181C295.302 139.192 294.796 139.199 294.542 139.202C294.036 139.209 293.529 139.216 293.022 139.223C292.643 139.228 292.137 139.298 291.505 139.434L288.674 140.803C288.547 140.804 288.484 140.805 288.484 140.805L285.267 141.8C284.764 142.06 284.382 141.938 284.122 141.435C284.118 141.182 284.116 140.992 284.114 140.865L282.789 141.263C282.286 141.524 281.968 141.401 281.834 140.896C281.706 140.772 281.453 140.775 281.074 140.907L278.428 141.893C277.925 142.154 277.543 142.032 277.283 141.529L274.633 142.325C274.13 142.586 273.748 142.401 273.486 141.771C273.482 141.518 273.543 141.327 273.668 141.198L271.016 141.805C270.513 142.065 270.193 141.879 270.058 141.248C269.926 140.87 270.049 140.551 270.425 140.293C270.172 140.296 269.982 140.299 269.855 140.301C269.728 140.302 269.602 140.304 269.475 140.306L267.206 141.097C266.576 141.359 266.194 141.238 266.061 140.733C266.059 140.606 266.058 140.543 266.058 140.543L263.981 141.521C263.478 141.781 263.096 141.66 262.836 141.157C262.834 141.03 262.832 140.84 262.828 140.587C262.702 140.589 262.513 140.655 262.261 140.785C262.134 140.786 262.071 140.787 262.071 140.787L260.744 140.996C260.745 141.122 260.621 141.251 260.369 141.381L257.155 142.565C256.652 142.825 256.27 142.704 256.01 142.201C255.75 141.697 256.123 141.249 257.131 140.855C256.876 140.732 256.623 140.735 256.372 140.865L252.97 142.242C252.467 142.502 252.149 142.38 252.015 141.875C251.888 141.877 251.825 141.878 251.825 141.878L249.558 142.859C249.055 143.119 248.673 142.998 248.413 142.495C248.153 141.992 248.274 141.61 248.777 141.35L252.366 139.78C252.111 139.657 251.984 139.596 251.984 139.596L248.577 140.592L245.743 141.771C245.24 142.031 244.858 141.91 244.598 141.407C244.338 140.904 244.522 140.521 245.152 140.259L247.984 138.89C247.984 138.89 248.047 138.889 248.174 138.888L249.878 138.484C249.622 138.234 249.429 138.047 249.301 137.922L247.596 138.326L244.952 139.502L241.735 140.496C241.232 140.756 240.85 140.635 240.59 140.132C240.455 139.5 240.639 139.118 241.144 138.984L244.358 137.8L247.005 136.813C247.003 136.687 247.318 136.556 247.95 136.42C247.435 135.794 246.982 135.104 246.591 134.349L244.325 135.33L240.918 136.327L237.706 137.701C237.203 137.961 236.822 137.84 236.561 137.337C236.301 136.834 236.486 136.451 237.116 136.189L240.325 134.625C240.325 134.625 240.388 134.624 240.514 134.622L243.734 133.818L245.811 132.839C245.549 132.21 245.222 131.517 244.832 130.763L242.188 131.939L239.354 133.118L236.33 134.3C235.827 134.56 235.444 134.375 235.182 133.745C235.048 133.24 235.234 132.921 235.739 132.788L238.573 131.609L241.594 130.237L244.429 129.058C244.298 128.806 244.168 128.555 244.038 128.303C243.906 127.925 243.839 127.609 243.835 127.356L238.162 129.334L235.33 130.703C234.699 130.838 234.316 130.653 234.183 130.149C233.922 129.645 234.044 129.264 234.547 129.003L237.381 127.825C237.381 127.825 237.444 127.824 237.571 127.822C237.569 127.695 237.568 127.632 237.568 127.632L240.408 126.833L243.052 125.657C242.792 125.153 242.531 124.65 242.271 124.147L239.432 124.946L236.408 126.128L233.191 127.122C232.688 127.382 232.369 127.26 232.236 126.755C231.974 126.125 232.159 125.743 232.79 125.607L235.814 124.426L239.031 123.432C239.031 123.432 239.03 123.368 239.028 123.242L241.49 122.638C241.1 121.883 240.71 121.128 240.319 120.374L237.865 121.547L234.458 122.544L231.819 124.1C231.316 124.361 230.935 124.239 230.674 123.736C230.414 123.233 230.536 122.851 231.039 122.591L233.678 121.035C233.678 121.035 233.741 121.034 233.868 121.032L237.272 119.845L239.726 118.672C239.594 118.293 239.462 117.915 239.33 117.537L236.496 118.716L233.659 119.705L230.445 120.889C229.94 121.023 229.558 120.838 229.298 120.335C229.162 119.703 229.347 119.321 229.852 119.187L233.256 118L235.905 117.204L238.549 116.027C238.416 115.523 238.218 114.955 237.956 114.325L235.505 115.689L232.48 116.871L229.264 117.865C229.139 117.993 229.012 117.995 228.884 117.87ZM216.595 136.28C217.1 136.147 217.482 136.268 217.74 136.645C218.627 136.632 219.449 136.558 220.207 136.421C220.457 136.164 220.71 136.16 220.967 136.41C221.85 136.145 222.542 135.755 223.041 135.242C223.791 134.471 224.159 133.58 224.145 132.566C224.258 131.551 224.308 130.601 224.296 129.714C224.287 129.081 224.281 128.638 224.277 128.384C224.375 126.229 224.409 124.139 224.382 122.112C224.352 119.959 224.322 117.806 224.293 115.653C224.263 113.5 224.234 111.347 224.204 109.193C224.175 107.04 224.145 104.887 224.116 102.734C224.109 102.227 224.102 101.721 224.095 101.214C224.088 100.708 224.144 100.2 224.264 99.6917C223.759 99.8253 223.44 99.6396 223.306 99.1348C223.046 98.6316 223.294 98.2482 224.051 97.9844C223.921 97.7329 223.917 97.4796 224.04 97.2245C223.771 96.0881 223.886 95.1998 224.384 94.5596C224.882 93.9193 225.321 93.5966 225.701 93.5914C226.207 93.5845 226.714 93.5775 227.221 93.5706C227.602 93.692 227.983 93.7502 228.363 93.7449C229.125 93.8612 229.886 93.9774 230.648 94.0937C231.535 94.0815 232.358 94.0702 233.118 94.0598C233.244 94.0581 233.435 94.1188 233.69 94.242C233.945 94.3651 234.074 94.4901 234.076 94.6167C234.589 95.1164 234.914 95.7453 235.052 96.5035C235.187 97.1351 235.386 97.7657 235.648 98.3955C237.462 101.411 238.962 104.557 240.147 107.835C241.459 111.11 242.771 114.386 244.082 117.662C244.337 117.785 244.53 117.972 244.66 118.224C244.662 118.351 244.664 118.477 244.665 118.604C244.931 119.487 245.259 120.306 245.649 121.061C245.776 121.059 245.904 121.184 246.034 121.435C246.163 121.56 246.164 121.687 246.039 121.815C246.56 122.822 247.079 123.701 247.596 124.454C247.596 124.454 247.597 124.518 247.598 124.644C247.859 125.147 248.056 125.651 248.189 126.156C248.321 126.534 248.454 126.976 248.587 127.481C248.841 127.477 249.033 127.665 249.165 128.043C249.295 128.295 249.235 128.549 248.986 128.806C249.249 129.562 249.511 130.192 249.772 130.695C250.151 130.69 250.407 130.876 250.539 131.255C250.798 131.631 250.802 131.948 250.552 132.204C251.201 133.336 251.972 134.085 252.863 134.453C253.368 134.319 253.751 134.504 254.011 135.007C254.013 135.134 254.015 135.324 254.019 135.577C254.784 135.947 255.674 136.188 256.689 136.301L257.821 135.715C258.326 135.582 258.709 135.766 258.969 136.269C259.349 136.264 259.729 136.259 260.109 136.254L261.241 135.668C261.746 135.535 262.128 135.719 262.388 136.223C262.642 136.219 262.958 136.215 263.338 136.21C263.717 136.078 264.221 135.881 264.85 135.619C265.229 135.487 265.547 135.609 265.806 135.986C266.186 135.981 266.565 135.975 266.945 135.97C267.324 135.838 267.829 135.705 268.46 135.569C268.838 135.437 269.156 135.496 269.413 135.746C269.793 135.741 270.173 135.736 270.552 135.731C270.932 135.725 271.375 135.656 271.88 135.522C272.258 135.391 272.576 135.45 272.832 135.699C273.212 135.694 273.592 135.689 273.972 135.684C274.479 135.677 275.048 135.606 275.679 135.47C275.806 135.469 275.996 135.466 276.249 135.463C278.529 135.431 280.871 135.336 283.276 135.176C285.681 135.017 288.022 134.858 290.3 134.7C291.06 134.689 291.757 134.68 292.39 134.671C293.023 134.663 293.657 134.654 294.29 134.645C294.543 134.642 294.923 134.637 295.43 134.63C296.446 134.869 297.143 134.859 297.52 134.601C298.274 134.211 298.901 133.695 299.399 133.055C299.896 132.415 300.458 131.774 301.082 131.132C300.949 130.627 300.818 130.312 300.689 130.187C300.684 129.807 300.743 129.49 300.866 129.235C300.865 129.108 300.8 128.982 300.671 128.857C300.288 128.609 299.903 128.298 299.518 127.923C299.518 127.923 299.517 127.86 299.516 127.733C299.387 127.608 299.323 127.546 299.323 127.546C298.803 126.539 298.219 125.534 297.572 124.529C297.049 123.396 296.465 122.328 295.817 121.323C293.109 117.813 290.965 113.915 289.387 109.63C287.933 105.216 285.788 101.255 282.953 97.7471C282.825 97.6222 282.76 97.5597 282.76 97.5597C281.463 95.2973 280.101 92.9724 278.674 90.5851C278.544 90.3335 278.222 89.8945 277.706 89.2682C277.321 88.8935 276.935 88.4554 276.548 87.954C276.288 87.4508 276.216 86.8184 276.332 86.0567C276.445 85.0418 276.88 84.4024 277.636 84.1387C278.391 83.7483 279.081 83.2955 279.708 82.7802C281.585 81.1076 283.334 79.3101 284.954 77.3878C286.701 75.4636 288.257 73.4155 289.62 71.2432C289.62 71.2432 289.684 71.2424 289.81 71.2406C289.809 71.114 289.808 71.0506 289.808 71.0506C291.43 69.2549 292.601 66.8953 293.321 63.9718C294.166 60.92 294.693 57.8091 294.903 54.6393C295.112 51.3428 295.073 48.5564 294.789 46.28C294.489 42.8638 293.804 39.1362 292.735 35.0971C291.793 31.0563 290.101 27.7226 287.658 25.0958C284.189 21.5963 280.095 18.6122 275.374 16.1433C270.78 13.6727 266.313 11.2637 261.974 8.9163C259.55 7.68274 256.625 6.83608 253.198 6.37634C249.898 5.91486 246.537 5.64423 243.116 5.56445C239.694 5.48467 236.589 5.33722 233.799 5.1221C229.109 4.93303 224.232 4.93655 219.168 5.13264C214.228 5.20035 209.419 5.51963 204.739 6.09049C201.577 6.3872 198.349 6.62145 195.058 6.79325C191.894 6.96331 188.729 7.13336 185.564 7.30342C185.311 7.30689 184.931 7.3121 184.424 7.31904C183.411 7.33293 182.399 7.41015 181.387 7.55069C180.502 7.6895 179.811 8.07901 179.313 8.71924C178.689 9.36119 178.32 10.1897 178.207 11.2046C178.093 12.0929 178.105 12.9795 178.244 13.8644C178.252 14.4977 178.258 14.9409 178.262 15.1943C178.267 15.5742 178.273 16.0175 178.28 16.5241C178.285 16.9041 178.291 17.3474 178.298 17.854C178.342 21.0204 178.386 24.2501 178.431 27.5431C178.601 30.7077 178.645 33.9374 178.564 37.2322C178.576 38.1188 178.589 39.0687 178.603 40.0819C178.615 40.9685 178.627 41.8551 178.639 42.7417C178.534 44.2633 178.491 45.784 178.512 47.3038C178.533 48.8237 178.554 50.3436 178.574 51.8634C178.614 54.7765 178.654 57.6895 178.694 60.6026C178.859 63.3873 179.025 66.2353 179.191 69.1466C179.219 71.1731 179.247 73.1995 179.275 75.226C179.302 77.2525 179.33 79.279 179.358 81.3054C179.374 82.4453 179.326 83.5861 179.215 84.7277C179.229 85.741 179.243 86.7542 179.257 87.7674C179.27 88.7807 179.284 89.7939 179.298 90.8072C179.437 91.692 179.512 92.5777 179.525 93.4643C179.545 94.9842 179.566 96.504 179.587 98.0239C179.606 99.4171 179.626 100.874 179.647 102.393C179.571 106.068 179.495 109.806 179.421 113.608C179.471 117.281 179.585 120.953 179.762 124.624C179.769 125.131 179.775 125.574 179.78 125.954C179.785 126.334 179.791 126.777 179.798 127.284C179.682 128.045 179.63 128.87 179.642 129.756C179.652 130.516 179.726 131.275 179.863 132.033C179.997 132.538 180.13 133.043 180.264 133.548C180.523 133.924 180.781 134.301 181.04 134.677L182.377 135.229C187.445 135.286 192.514 135.407 197.584 135.591C202.652 135.648 207.722 135.895 212.795 136.332C212.922 136.331 213.049 136.329 213.175 136.327C213.302 136.325 213.365 136.325 213.365 136.325C213.745 136.319 214.189 136.377 214.698 136.496C215.331 136.488 215.963 136.416 216.595 136.28ZM227.985 38.4549C228.492 38.448 228.812 38.6969 228.946 39.2018C229.326 39.1966 229.642 39.1923 229.895 39.1888L230.838 38.6058C231.341 38.3456 231.785 38.4028 232.17 38.7776C232.172 38.9043 232.173 38.9676 232.173 38.9676C232.299 38.9658 232.489 38.9632 232.743 38.9598L234.635 38.3638C235.015 38.3586 235.269 38.4184 235.397 38.5433C236.284 38.5312 237.169 38.4557 238.054 38.3169C238.308 38.3134 238.562 38.3733 238.817 38.4965C240.843 38.4687 242.56 38.9519 243.967 39.946C246.013 41.3114 247.37 43.3197 248.04 45.9708C248.835 48.4934 248.87 51.0899 248.147 53.76C247.422 56.3035 246.055 58.2858 244.048 59.7068C243.295 60.2238 242.477 60.615 241.594 60.8805C240.709 61.0193 239.824 61.1581 238.939 61.2969C238.559 61.3021 238.116 61.3082 237.609 61.3152C237.23 61.3204 236.85 61.3256 236.47 61.3308C236.09 61.336 235.773 61.3403 235.52 61.3438C234.383 61.6127 233.562 61.7507 233.055 61.7576C232.547 61.6379 232.165 61.5165 231.91 61.3933C231.53 61.3985 231.15 61.4037 230.77 61.4089C230.388 61.2875 229.818 61.2953 229.06 61.4323L224.899 62.8195C224.521 62.9514 224.076 62.8941 223.566 62.6478C223.181 62.273 222.986 61.8956 222.981 61.5157C222.974 61.0091 222.968 60.5658 222.963 60.1858C222.956 59.6792 222.885 59.1734 222.752 58.6685C222.721 56.3888 222.689 54.109 222.658 51.8292C222.625 49.4228 222.593 47.0796 222.562 44.7999C222.556 44.4199 222.486 43.9141 222.351 43.2826C222.217 42.7777 222.147 42.272 222.14 41.7653C222.26 41.257 222.569 40.746 223.069 40.2325C223.567 39.5922 224.196 39.2669 224.956 39.2565C225.083 39.2548 225.146 39.2539 225.146 39.2539L226.278 38.6683C226.278 38.6683 226.341 38.6675 226.468 38.6657C226.595 38.664 226.658 38.6631 226.658 38.6631L227.985 38.4549ZM227.86 57.0784C228.619 56.9413 229.44 56.8034 230.325 56.6646C231.208 56.3991 232.032 56.4511 232.797 56.8207C232.924 56.819 233.116 56.943 233.373 57.1928C233.373 57.1928 233.436 57.192 233.563 57.1902C233.689 57.1885 234.005 57.1208 234.51 56.9872C234.51 56.9872 234.636 56.9222 234.887 56.792C235.141 56.7886 235.267 56.7868 235.267 56.7868C235.52 56.7834 235.837 56.779 236.217 56.7738C237.105 56.8883 237.739 56.8796 238.117 56.7478L242.645 54.4055C242.645 54.4055 242.709 54.4046 242.835 54.4029C242.835 54.4029 242.899 54.402 243.025 54.4003C243.393 53.5085 243.697 52.5542 243.936 51.5375L241.292 52.7139L238.653 54.2702C238.526 54.2719 238.463 54.2728 238.463 54.2728L235.246 55.267C234.743 55.5272 234.361 55.4058 234.101 54.9026C233.966 54.2711 234.151 53.8885 234.656 53.7549L237.87 52.5708L240.511 51.2044C240.638 51.2027 240.701 51.2018 240.701 51.2018L243.533 49.8329C243.659 49.8312 243.848 49.7652 244.1 49.6351C244.084 48.4952 243.88 47.4846 243.488 46.6032L240.464 47.7848L237.445 49.3463L234.617 50.9052C234.113 51.1655 233.732 51.044 233.471 50.5409C233.211 50.0377 233.333 49.656 233.836 49.3958L236.665 47.8368L239.874 46.2727L242.705 44.9038C242.318 44.4024 241.87 44.0285 241.36 43.7821C240.976 43.534 240.53 43.3501 240.022 43.2304L237.945 44.209L235.116 45.7679L231.715 47.1446C231.21 47.2782 230.827 47.0934 230.567 46.5903C230.433 46.0854 230.618 45.7028 231.121 45.4426L234.335 44.2584L236.787 42.8947C236.282 43.0283 235.777 43.1619 235.272 43.2955C234.766 43.3024 234.259 43.3094 233.752 43.3163C232.741 43.4569 231.982 43.5306 231.475 43.5376C230.084 43.6833 228.882 43.8265 227.871 43.967C227.871 43.967 227.618 44.0338 227.113 44.1674C227.117 44.4207 227.12 44.6107 227.121 44.7374C227.151 46.8905 227.179 48.9803 227.207 51.0068C227.362 53.0315 227.579 55.0554 227.86 57.0784ZM228.618 98.4919C228.747 98.6168 228.812 98.8059 228.816 99.0592C228.823 99.5659 229.081 99.879 229.589 99.9987L231.288 99.2154C231.156 98.8371 231.09 98.5847 231.088 98.458C230.455 98.4667 229.631 98.478 228.618 98.4919ZM228.665 101.912C228.667 102.038 228.671 102.355 228.678 102.861C228.687 103.495 228.696 104.191 228.707 104.951L232.858 102.804C232.596 102.174 232.27 101.545 231.882 100.917L229.99 101.513L228.665 101.912ZM228.733 106.851C228.736 107.104 228.739 107.294 228.741 107.421L231.58 106.622L234.417 105.633C234.158 105.257 233.962 104.816 233.828 104.311L231.374 105.485L228.733 106.851ZM228.767 109.321C228.772 109.701 228.778 110.144 228.785 110.651C228.917 111.029 229.111 111.343 229.368 111.593L232.199 110.224L235.793 109.035C235.53 108.278 235.268 107.712 235.01 107.335L231.981 108.137L228.767 109.321ZM228.827 113.69C228.832 114.07 228.841 114.767 228.855 115.78C228.859 116.034 228.861 116.224 228.863 116.35L231.887 115.169L234.914 114.177L237.365 112.813C237.233 112.435 237.038 112.058 236.78 111.681C236.648 111.303 236.454 110.989 236.197 110.739L232.793 111.926L228.827 113.69Z" fill="url(#paint1_linear_352_4)"/>
<defs>
<linearGradient id="paint0_linear_352_4" x1="332.178" y1="2.20263" x2="3.43442" y2="6.70884" gradientUnits="userSpaceOnUse">
<stop stop-color="#6E11B0"/>
<stop offset="0.513016" stop-color="#62748E"/>
<stop offset="1" stop-color="#FDA5D5"/>
</linearGradient>
<linearGradient id="paint1_linear_352_4" x1="332.178" y1="2.20263" x2="3.43442" y2="6.70884" gradientUnits="userSpaceOnUse">
<stop stop-color="#6E11B0"/>
<stop offset="0.513016" stop-color="#62748E"/>
<stop offset="1" stop-color="#FDA5D5"/>
</linearGradient>
</defs>
</svg>
